<svg id="Layer_1" data-name="Layer 1" xmlns="http://www.w3.org/2000/svg" width="35.28mm" height="232.18mm" viewBox="0 0 100 658.16"><defs><style>.cls-1{isolation:isolate;}.cls-2{fill:none;stroke:#000;stroke-miterlimit:10;}</style></defs><g class="cls-1"><g class="cls-1"><path d="M52.51,614.08c10,0,16,6.82,16,16.84,0,10.17-6.8,16.12-15.44,16.12-9.09,0-15.88-6.56-15.88-16.68C37.17,619.83,44.14,614.08,52.51,614.08Zm.41,24.77c5.94,0,10.12-3.15,10.12-8.34s-4.41-8.24-10.3-8.24c-5.45,0-10.13,3-10.13,8.29S47,638.85,52.92,638.85Z"/><path d="M37.66,609v-21h5.63v13.17h6.93V588.91H55.8v12.31H68V609Z"/><path d="M43.42,575.59v9.21H37.66V558.45h5.76v9.36H68v7.78Z"/><path d="M55.17,534v12.61h7.2V532.47H68v21.87H37.66V533.18h5.63v13.38h6.3V534Z"/><path d="M60.93,516.66a22,22,0,0,0,1.89-8.6c0-3.55-1.31-5.44-3.29-5.44s-3,1.63-4.27,5.75c-1.76,5.7-4.55,9.41-9,9.41-5.17,0-9.13-4.88-9.13-13a23.38,23.38,0,0,1,1.53-8.75l5.53,1.73A18.18,18.18,0,0,0,42.79,505c0,3.36,1.35,5,2.93,5,1.93,0,2.79-1.94,4.27-6.36,2-6,4.77-8.9,9-8.9,5.08,0,9.4,4.42,9.4,13.83a25,25,0,0,1-1.84,9.72Z"/><path d="M43.42,482.84v9.21H37.66V465.7h5.76v9.36H68v7.78Z"/><path d="M37.66,453.81H68v7.78H37.66Z"/><path d="M37.66,447.1v-7.78H62.23V425.69H68V447.1Z"/><path d="M37.66,421.11v-7.78H62.23V399.7H68v21.41Z"/><path d="M55.17,374.74v12.61h7.2V373.26H68v21.87H37.66V374h5.63v13.38h6.3V374.74Z"/><path d="M38.07,368a77.26,77.26,0,0,1-.63-10.48c0-6.51,1-10.73,3.24-14,2.34-3.56,6.07-5.79,11.43-5.79,5.8,0,9.81,2.39,12.28,5.69,2.66,3.61,3.92,9.11,3.92,15.82a77,77,0,0,1-.45,8.8Zm24.75-7.78a16.8,16.8,0,0,0,.13-2.7c0-7-3.37-11.6-10.62-11.6-6.3,0-9.63,4.12-9.63,10.79A18.66,18.66,0,0,0,43,360.2Z"/><path d="M55.17,312.19V324.8h7.2V310.72H68v21.87H37.66V311.43h5.63V324.8h6.3V312.19Z"/><path d="M60.93,294.91a22,22,0,0,0,1.89-8.6c0-3.56-1.31-5.44-3.29-5.44s-3,1.63-4.27,5.75c-1.76,5.69-4.55,9.4-9,9.4-5.17,0-9.13-4.88-9.13-13a23.34,23.34,0,0,1,1.53-8.75L44.23,276a18.1,18.1,0,0,0-1.44,7.17c0,3.35,1.35,5,2.93,5,1.93,0,2.79-1.93,4.27-6.35,2-6.06,4.77-8.91,9-8.91,5.08,0,9.4,4.43,9.4,13.84a25,25,0,0,1-1.84,9.71Z"/><path d="M38.07,267.7a71.61,71.61,0,0,1-.63-10.48c0-4.78.81-8.18,2.43-10.47a8.5,8.5,0,0,1,7-3.66,9.11,9.11,0,0,1,7.2,3.15c2.2,2.64,3.19,6.56,3.19,11.14a22.12,22.12,0,0,1-.13,2.64H68v7.68ZM51.84,260a13.7,13.7,0,0,0,.18-2.59c0-4.12-1.85-6.66-5-6.66-2.79,0-4.46,2.18-4.46,6a15.21,15.21,0,0,0,.27,3.2Z"/><path d="M68.08,237.85,64.26,235a15.29,15.29,0,0,1-11.39,4.73c-8.91,0-15.7-6.61-15.7-16.52a17.8,17.8,0,0,1,1.57-7.58l-3.64-2.8,2.61-4.42,3.78,2.89a15.16,15.16,0,0,1,11.16-4.52c9.9,0,15.84,7,15.84,16.48A17.42,17.42,0,0,1,67,230.58l4,3.1ZM43.6,219.24a7.61,7.61,0,0,0-1.08,4c0,5.49,4.32,8.74,10.31,8.74a11.43,11.43,0,0,0,5.53-1.32v0ZM62.1,227a6.63,6.63,0,0,0,1-3.76c0-5.39-4.23-8.7-10.39-8.7a12.79,12.79,0,0,0-5.13,1.12l0,.15Z"/></g><g class="cls-1"><path class="cls-2" d="M52.51,614.08c10,0,16,6.82,16,16.84,0,10.17-6.8,16.12-15.44,16.12-9.09,0-15.88-6.56-15.88-16.68C37.17,619.83,44.14,614.08,52.51,614.08Zm.41,24.77c5.94,0,10.12-3.15,10.12-8.34s-4.41-8.24-10.3-8.24c-5.45,0-10.13,3-10.13,8.29S47,638.85,52.92,638.85Z"/><path class="cls-2" d="M37.66,609v-21h5.63v13.17h6.93V588.91H55.8v12.31H68V609Z"/><path class="cls-2" d="M43.42,575.59v9.21H37.66V558.45h5.76v9.36H68v7.78Z"/><path class="cls-2" d="M55.17,534v12.61h7.2V532.47H68v21.87H37.66V533.18h5.63v13.38h6.3V534Z"/><path class="cls-2" d="M60.93,516.66a22,22,0,0,0,1.89-8.6c0-3.55-1.31-5.44-3.29-5.44s-3,1.63-4.27,5.75c-1.76,5.7-4.55,9.41-9,9.41-5.17,0-9.13-4.88-9.13-13a23.38,23.38,0,0,1,1.53-8.75l5.53,1.73A18.18,18.18,0,0,0,42.79,505c0,3.36,1.35,5,2.93,5,1.93,0,2.79-1.94,4.27-6.36,2-6,4.77-8.9,9-8.9,5.08,0,9.4,4.42,9.4,13.83a25,25,0,0,1-1.84,9.72Z"/><path class="cls-2" d="M43.42,482.84v9.21H37.66V465.7h5.76v9.36H68v7.78Z"/><path class="cls-2" d="M37.66,453.81H68v7.78H37.66Z"/><path class="cls-2" d="M37.66,447.1v-7.78H62.23V425.69H68V447.1Z"/><path class="cls-2" d="M37.66,421.11v-7.78H62.23V399.7H68v21.41Z"/><path class="cls-2" d="M55.17,374.74v12.61h7.2V373.26H68v21.87H37.66V374h5.63v13.38h6.3V374.74Z"/><path class="cls-2" d="M38.07,368a77.26,77.26,0,0,1-.63-10.48c0-6.51,1-10.73,3.24-14,2.34-3.56,6.07-5.79,11.43-5.79,5.8,0,9.81,2.39,12.28,5.69,2.66,3.61,3.92,9.11,3.92,15.82a77,77,0,0,1-.45,8.8Zm24.75-7.78a16.8,16.8,0,0,0,.13-2.7c0-7-3.37-11.6-10.62-11.6-6.3,0-9.63,4.12-9.63,10.79A18.66,18.66,0,0,0,43,360.2Z"/><path class="cls-2" d="M55.17,312.19V324.8h7.2V310.72H68v21.87H37.66V311.43h5.63V324.8h6.3V312.19Z"/><path class="cls-2" d="M60.93,294.91a22,22,0,0,0,1.89-8.6c0-3.56-1.31-5.44-3.29-5.44s-3,1.63-4.27,5.75c-1.76,5.69-4.55,9.4-9,9.4-5.17,0-9.13-4.88-9.13-13a23.34,23.34,0,0,1,1.53-8.75L44.23,276a18.1,18.1,0,0,0-1.44,7.17c0,3.35,1.35,5,2.93,5,1.93,0,2.79-1.93,4.27-6.35,2-6.06,4.77-8.91,9-8.91,5.08,0,9.4,4.43,9.4,13.84a25,25,0,0,1-1.84,9.71Z"/><path class="cls-2" d="M38.07,267.7a71.61,71.61,0,0,1-.63-10.48c0-4.78.81-8.18,2.43-10.47a8.5,8.5,0,0,1,7-3.66,9.11,9.11,0,0,1,7.2,3.15c2.2,2.64,3.19,6.56,3.19,11.14a22.12,22.12,0,0,1-.13,2.64H68v7.68ZM51.84,260a13.7,13.7,0,0,0,.18-2.59c0-4.12-1.85-6.66-5-6.66-2.79,0-4.46,2.18-4.46,6a15.21,15.21,0,0,0,.27,3.2Z"/><path class="cls-2" d="M68.08,237.85,64.26,235a15.29,15.29,0,0,1-11.39,4.73c-8.91,0-15.7-6.61-15.7-16.52a17.8,17.8,0,0,1,1.57-7.58l-3.64-2.8,2.61-4.42,3.78,2.89a15.16,15.16,0,0,1,11.16-4.52c9.9,0,15.84,7,15.84,16.48A17.42,17.42,0,0,1,67,230.58l4,3.1ZM43.6,219.24a7.61,7.61,0,0,0-1.08,4c0,5.49,4.32,8.74,10.31,8.74a11.43,11.43,0,0,0,5.53-1.32v0ZM62.1,227a6.63,6.63,0,0,0,1-3.76c0-5.39-4.23-8.7-10.39-8.7a12.79,12.79,0,0,0-5.13,1.12l0,.15Z"/></g><g class="cls-1"><path d="M38.07,200.07a76.73,76.73,0,0,1-.63-10.32c0-5.09.67-8.65,2.38-11.09a7.37,7.37,0,0,1,6.35-3.15c3.87,0,6.52,3.1,7.47,6.05h.13c.86-2.39,2.88-3.71,5.67-4.58,3.42-1.07,7.38-2.13,8.55-2.8v7.94c-.86.56-3.33,1.37-7.07,2.39s-4.81,2.39-4.85,5.54v2.34H68v7.68Zm13-7.68v-3c0-3.86-1.71-6.15-4.37-6.15s-4.18,2.13-4.23,5.69a21.63,21.63,0,0,0,.23,3.51Z"/></g><g class="cls-1"><path class="cls-2" d="M38.07,200.07a76.73,76.73,0,0,1-.63-10.32c0-5.09.67-8.65,2.38-11.09a7.37,7.37,0,0,1,6.35-3.15c3.87,0,6.52,3.1,7.47,6.05h.13c.86-2.39,2.88-3.71,5.67-4.58,3.42-1.07,7.38-2.14,8.55-2.8v7.94c-.85.56-3.33,1.37-7.06,2.39s-4.82,2.39-4.86,5.54v2.34H68v7.68Zm13-7.68v-3c0-3.87-1.71-6.15-4.37-6.15s-4.18,2.13-4.23,5.69a21.63,21.63,0,0,0,.23,3.51Z"/></g><g class="cls-1"><path d="M67.05,142.2a42.9,42.9,0,0,1,1.71,11.44c0,6.26-1.4,10.78-4.1,13.94a13.83,13.83,0,0,1-11,4.83c-10.08,0-15.84-8.34-15.84-19.58a26.33,26.33,0,0,1,1.48-9.51L44.77,145a21.15,21.15,0,0,0-1.3,8c0,6.46,3.24,11.34,9.81,11.34,6.25,0,9.94-4.42,9.94-10.78a11.71,11.71,0,0,0-.45-3.82H56.43V155H51.07V142.2Z"/><path d="M61.38,135.9a22,22,0,0,0,1.89-8.6c0-3.56-1.31-5.44-3.29-5.44s-3,1.63-4.27,5.75c-1.76,5.69-4.55,9.41-9,9.41-5.17,0-9.13-4.89-9.13-13a23.38,23.38,0,0,1,1.53-8.75L44.68,117a18.1,18.1,0,0,0-1.44,7.17c0,3.36,1.35,5,2.93,5,1.93,0,2.79-1.93,4.27-6.35,2-6,4.77-8.9,9.05-8.9,5.08,0,9.4,4.42,9.4,13.83a25,25,0,0,1-1.84,9.71Z"/></g><g class="cls-1"><path class="cls-2" d="M67.05,142.2a42.9,42.9,0,0,1,1.71,11.44c0,6.26-1.4,10.78-4.1,13.94a13.83,13.83,0,0,1-11,4.83c-10.08,0-15.84-8.34-15.84-19.58a26.33,26.33,0,0,1,1.48-9.51L44.77,145a21.15,21.15,0,0,0-1.3,8c0,6.46,3.24,11.34,9.81,11.34,6.25,0,9.94-4.42,9.94-10.78a11.71,11.71,0,0,0-.45-3.82H56.43V155H51.07V142.2Z"/><path class="cls-2" d="M61.38,135.9a22,22,0,0,0,1.89-8.6c0-3.56-1.31-5.44-3.29-5.44s-3,1.63-4.27,5.75c-1.76,5.69-4.55,9.41-9,9.41-5.17,0-9.13-4.89-9.13-13a23.38,23.38,0,0,1,1.53-8.75L44.68,117a18.1,18.1,0,0,0-1.44,7.17c0,3.36,1.35,5,2.93,5,1.93,0,2.79-1.93,4.27-6.35,2-6,4.77-8.9,9.05-8.9,5.08,0,9.4,4.42,9.4,13.83a25,25,0,0,1-1.84,9.71Z"/></g><g class="cls-1"><path d="M55.93,78.87c-3.65.15-8.06.3-12.47.3v.16c3.87,1.06,8.19,2.49,11.75,3.81L67,87.31v6L55.3,97c-3.56,1.12-7.88,2.29-11.84,3.11v.1c4.1.2,8.78.35,12.56.61l11.52.61v7.17l-30.33-2.19V96.11l10.12-3.36c3.51-1.07,7.29-2.13,10.85-2.9V89.7c-3.51-1-7.52-2.13-10.89-3.25L37.21,82.78V72.66l30.33-1.88v7.58Z"/></g><g class="cls-1"><path class="cls-2" d="M55.93,78.73c-3.65.16-8.06.31-12.47.31v.15c3.87,1.07,8.19,2.49,11.75,3.82L67,87.18v6L55.3,96.89C51.74,98,47.42,99.18,43.46,100v.1c4.1.21,8.78.36,12.56.61l11.52.61v7.18L37.21,106.3V96l10.12-3.35c3.51-1.07,7.29-2.14,10.85-2.9v-.15c-3.51-1-7.52-2.14-10.89-3.26L37.21,82.65V72.53l30.33-1.88v7.57Z"/></g><g class="cls-1"><path d="M32,44.27c2.43,0,4.36,2.14,4.36,5.8S34.47,56,32.08,56s-4.5-2.09-4.5-5.9S29.56,44.27,32,44.27Zm0,8.09a2.25,2.25,0,0,0,0-4.48,2.14,2.14,0,0,0-2.16,2.29A2.09,2.09,0,0,0,32.08,52.36Zm28.12,2.9L68,57.7v8L37.66,55.26V45.08L68,34.45V42.8L60.2,45.44Zm-5.13-8.7-6.43,2.13c-1.8.61-4,1.23-5.85,1.73v.11c1.8.5,4.09,1,5.85,1.57l6.43,2Z"/><path d="M37.66,29.88V22.1H62.23V8.47H68V29.88Z"/></g><g class="cls-1"><path class="cls-2" d="M32,44.27c2.43,0,4.36,2.14,4.36,5.8S34.47,56,32.08,56s-4.5-2.09-4.5-5.9S29.56,44.27,32,44.27Zm0,8.09a2.25,2.25,0,0,0,0-4.48,2.14,2.14,0,0,0-2.16,2.29A2.09,2.09,0,0,0,32.08,52.36Zm28.12,2.9L68,57.7v8L37.66,55.26V45.08L68,34.45V42.8L60.2,45.44Zm-5.13-8.7-6.43,2.13c-1.8.61-4,1.23-5.85,1.73v.11c1.8.5,4.09,1,5.85,1.57l6.43,2Z"/><path class="cls-2" d="M37.66,29.88V22.1H62.23V8.47H68V29.88Z"/></g></g></svg>