<svg width="540" height="384" viewBox="0 0 540 384" fill="none" xmlns="http://www.w3.org/2000/svg">
<path d="M0.75 28.75H539.25V376C539.25 380.004 536.004 383.25 532 383.25H7.99999C3.99593 383.25 0.75 380.004 0.75 376V28.75Z" fill="white" stroke="#01020F" stroke-width="1.5"/>
<path d="M8 0.75H532C536.004 0.75 539.25 3.99593 539.25 8V39.25H0.75V8C0.75 3.99594 3.99594 0.75 8 0.75Z" fill="white" stroke="#01020F" stroke-width="1.5"/>
<path d="M205.156 28V11.536H208.732V24.952H217.036V28H205.156ZM224.784 28.288C223.392 28.288 222.224 28.056 221.28 27.592C220.336 27.112 219.624 26.384 219.144 25.408C218.664 24.432 218.424 23.192 218.424 21.688C218.424 20.168 218.664 18.928 219.144 17.968C219.624 16.992 220.328 16.272 221.256 15.808C222.2 15.328 223.352 15.088 224.712 15.088C225.992 15.088 227.072 15.32 227.952 15.784C228.832 16.232 229.496 16.936 229.944 17.896C230.392 18.84 230.616 20.064 230.616 21.568V22.432H221.808C221.84 23.168 221.952 23.792 222.144 24.304C222.352 24.816 222.664 25.2 223.08 25.456C223.512 25.696 224.08 25.816 224.784 25.816C225.168 25.816 225.512 25.768 225.816 25.672C226.136 25.576 226.408 25.432 226.632 25.24C226.856 25.048 227.032 24.808 227.16 24.52C227.288 24.232 227.352 23.904 227.352 23.536H230.616C230.616 24.336 230.472 25.032 230.184 25.624C229.896 26.216 229.496 26.712 228.984 27.112C228.472 27.496 227.856 27.792 227.136 28C226.432 28.192 225.648 28.288 224.784 28.288ZM221.856 20.32H227.184C227.184 19.84 227.12 19.424 226.992 19.072C226.88 18.72 226.72 18.432 226.512 18.208C226.304 17.984 226.048 17.824 225.744 17.728C225.456 17.616 225.128 17.56 224.76 17.56C224.152 17.56 223.64 17.664 223.224 17.872C222.824 18.064 222.512 18.368 222.288 18.784C222.08 19.184 221.936 19.696 221.856 20.32ZM237.527 28.288C236.487 28.288 235.583 28.056 234.815 27.592C234.063 27.112 233.479 26.384 233.063 25.408C232.647 24.432 232.439 23.184 232.439 21.664C232.439 20.144 232.647 18.904 233.063 17.944C233.495 16.968 234.079 16.248 234.815 15.784C235.567 15.32 236.431 15.088 237.407 15.088C237.951 15.088 238.455 15.152 238.919 15.28C239.399 15.392 239.815 15.576 240.167 15.832C240.535 16.088 240.847 16.4 241.103 16.768H241.247V10.648H244.583V28H241.847L241.583 26.296H241.415C240.999 26.968 240.455 27.472 239.783 27.808C239.111 28.128 238.359 28.288 237.527 28.288ZM238.583 25.552C239.207 25.552 239.711 25.408 240.095 25.12C240.495 24.832 240.791 24.416 240.983 23.872C241.175 23.328 241.271 22.68 241.271 21.928V21.496C241.271 20.936 241.215 20.424 241.103 19.96C241.007 19.496 240.847 19.112 240.623 18.808C240.399 18.488 240.119 18.248 239.783 18.088C239.447 17.912 239.047 17.824 238.583 17.824C237.911 17.824 237.375 17.96 236.975 18.232C236.575 18.488 236.287 18.888 236.111 19.432C235.935 19.96 235.847 20.624 235.847 21.424V21.976C235.847 22.776 235.935 23.44 236.111 23.968C236.287 24.496 236.575 24.896 236.975 25.168C237.375 25.424 237.911 25.552 238.583 25.552ZM247.665 13.528V10.648H251.001V13.528H247.665ZM247.665 28V15.376H251.001V28H247.665ZM256.127 32.512C255.567 32.512 255.039 32.392 254.543 32.152C254.047 31.928 253.647 31.592 253.343 31.144C253.039 30.696 252.887 30.16 252.887 29.536C252.887 28.832 253.087 28.272 253.487 27.856C253.903 27.424 254.367 27.104 254.879 26.896C254.511 26.688 254.207 26.416 253.967 26.08C253.743 25.744 253.631 25.352 253.631 24.904C253.631 24.28 253.855 23.776 254.303 23.392C254.767 22.992 255.295 22.736 255.887 22.624C255.295 22.256 254.831 21.792 254.495 21.232C254.175 20.656 254.015 20.016 254.015 19.312C254.015 18.4 254.239 17.632 254.687 17.008C255.151 16.384 255.807 15.912 256.655 15.592C257.519 15.256 258.535 15.088 259.703 15.088C260.167 15.088 260.599 15.112 260.999 15.16C261.415 15.208 261.791 15.288 262.127 15.4C262.719 15.048 263.119 14.664 263.327 14.248C263.551 13.816 263.671 13.472 263.687 13.216H266.783C266.783 13.808 266.671 14.32 266.447 14.752C266.239 15.184 265.935 15.544 265.535 15.832C265.135 16.104 264.655 16.304 264.095 16.432C264.511 16.784 264.831 17.208 265.055 17.704C265.279 18.2 265.391 18.736 265.391 19.312C265.391 20.208 265.175 20.976 264.743 21.616C264.311 22.24 263.695 22.72 262.895 23.056C262.111 23.392 261.167 23.56 260.063 23.56H258.143C257.759 23.56 257.471 23.632 257.279 23.776C257.087 23.904 256.991 24.096 256.991 24.352C256.991 24.56 257.071 24.744 257.231 24.904C257.407 25.048 257.687 25.12 258.071 25.12H263.327C264.383 25.12 265.223 25.448 265.847 26.104C266.487 26.744 266.807 27.568 266.807 28.576C266.807 29.344 266.607 30.024 266.207 30.616C265.807 31.208 265.255 31.672 264.551 32.008C263.847 32.344 263.039 32.512 262.127 32.512H256.127ZM257.519 30.28H261.959C262.247 30.28 262.503 30.224 262.727 30.112C262.951 30.016 263.127 29.872 263.255 29.68C263.383 29.504 263.447 29.296 263.447 29.056C263.447 28.64 263.319 28.328 263.063 28.12C262.807 27.912 262.487 27.808 262.103 27.808H257.519C257.135 27.808 256.815 27.92 256.559 28.144C256.319 28.368 256.199 28.664 256.199 29.032C256.199 29.4 256.319 29.696 256.559 29.92C256.815 30.16 257.135 30.28 257.519 30.28ZM259.703 21.4C260.487 21.4 261.079 21.224 261.479 20.872C261.895 20.504 262.103 19.984 262.103 19.312C262.103 18.64 261.895 18.128 261.479 17.776C261.079 17.408 260.487 17.224 259.703 17.224C258.935 17.224 258.343 17.408 257.927 17.776C257.527 18.128 257.327 18.64 257.327 19.312C257.327 19.744 257.415 20.12 257.591 20.44C257.767 20.76 258.031 21 258.383 21.16C258.735 21.32 259.175 21.4 259.703 21.4ZM274.377 28.288C272.985 28.288 271.817 28.056 270.873 27.592C269.929 27.112 269.217 26.384 268.737 25.408C268.257 24.432 268.017 23.192 268.017 21.688C268.017 20.168 268.257 18.928 268.737 17.968C269.217 16.992 269.921 16.272 270.849 15.808C271.793 15.328 272.945 15.088 274.305 15.088C275.585 15.088 276.665 15.32 277.545 15.784C278.425 16.232 279.089 16.936 279.537 17.896C279.985 18.84 280.209 20.064 280.209 21.568V22.432H271.401C271.433 23.168 271.545 23.792 271.737 24.304C271.945 24.816 272.257 25.2 272.673 25.456C273.105 25.696 273.673 25.816 274.377 25.816C274.761 25.816 275.105 25.768 275.409 25.672C275.729 25.576 276.001 25.432 276.225 25.24C276.449 25.048 276.625 24.808 276.753 24.52C276.881 24.232 276.945 23.904 276.945 23.536H280.209C280.209 24.336 280.065 25.032 279.777 25.624C279.489 26.216 279.089 26.712 278.577 27.112C278.065 27.496 277.449 27.792 276.729 28C276.025 28.192 275.241 28.288 274.377 28.288ZM271.449 20.32H276.777C276.777 19.84 276.713 19.424 276.585 19.072C276.473 18.72 276.313 18.432 276.105 18.208C275.897 17.984 275.641 17.824 275.337 17.728C275.049 17.616 274.721 17.56 274.353 17.56C273.745 17.56 273.233 17.664 272.817 17.872C272.417 18.064 272.105 18.368 271.881 18.784C271.673 19.184 271.529 19.696 271.449 20.32ZM291.136 28.288C290.336 28.288 289.688 28.144 289.192 27.856C288.696 27.568 288.336 27.184 288.112 26.704C287.888 26.208 287.776 25.664 287.776 25.072V17.944H286.216V15.376H287.896L288.52 11.776H291.112V15.376H293.416V17.944H291.112V24.52C291.112 24.904 291.2 25.2 291.376 25.408C291.552 25.6 291.84 25.696 292.24 25.696H293.416V27.904C293.224 27.968 293 28.024 292.744 28.072C292.488 28.136 292.216 28.184 291.928 28.216C291.64 28.264 291.376 28.288 291.136 28.288ZM295.571 13.528V10.648H298.907V13.528H295.571ZM295.571 28V15.376H298.907V28H295.571ZM306.434 28.288C305.394 28.288 304.49 28.056 303.722 27.592C302.97 27.112 302.386 26.384 301.97 25.408C301.554 24.432 301.346 23.184 301.346 21.664C301.346 20.144 301.554 18.904 301.97 17.944C302.402 16.968 302.986 16.248 303.722 15.784C304.474 15.32 305.338 15.088 306.314 15.088C306.858 15.088 307.362 15.152 307.826 15.28C308.306 15.392 308.722 15.576 309.074 15.832C309.442 16.088 309.754 16.4 310.01 16.768H310.154V10.648H313.49V28H310.754L310.49 26.296H310.322C309.906 26.968 309.362 27.472 308.69 27.808C308.018 28.128 307.266 28.288 306.434 28.288ZM307.49 25.552C308.114 25.552 308.618 25.408 309.002 25.12C309.402 24.832 309.698 24.416 309.89 23.872C310.082 23.328 310.178 22.68 310.178 21.928V21.496C310.178 20.936 310.122 20.424 310.01 19.96C309.914 19.496 309.754 19.112 309.53 18.808C309.306 18.488 309.026 18.248 308.69 18.088C308.354 17.912 307.954 17.824 307.49 17.824C306.818 17.824 306.282 17.96 305.882 18.232C305.482 18.488 305.194 18.888 305.018 19.432C304.842 19.96 304.754 20.624 304.754 21.424V21.976C304.754 22.776 304.842 23.44 305.018 23.968C305.194 24.496 305.482 24.896 305.882 25.168C306.282 25.424 306.818 25.552 307.49 25.552ZM322.307 28.288C320.915 28.288 319.747 28.056 318.803 27.592C317.859 27.112 317.147 26.384 316.667 25.408C316.187 24.432 315.947 23.192 315.947 21.688C315.947 20.168 316.187 18.928 316.667 17.968C317.147 16.992 317.851 16.272 318.779 15.808C319.723 15.328 320.875 15.088 322.235 15.088C323.515 15.088 324.595 15.32 325.475 15.784C326.355 16.232 327.019 16.936 327.467 17.896C327.915 18.84 328.139 20.064 328.139 21.568V22.432H319.331C319.363 23.168 319.475 23.792 319.667 24.304C319.875 24.816 320.187 25.2 320.603 25.456C321.035 25.696 321.603 25.816 322.307 25.816C322.691 25.816 323.035 25.768 323.339 25.672C323.659 25.576 323.931 25.432 324.155 25.24C324.379 25.048 324.555 24.808 324.683 24.52C324.811 24.232 324.875 23.904 324.875 23.536H328.139C328.139 24.336 327.995 25.032 327.707 25.624C327.419 26.216 327.019 26.712 326.507 27.112C325.995 27.496 325.379 27.792 324.659 28C323.955 28.192 323.171 28.288 322.307 28.288ZM319.379 20.32H324.707C324.707 19.84 324.643 19.424 324.515 19.072C324.403 18.72 324.243 18.432 324.035 18.208C323.827 17.984 323.571 17.824 323.267 17.728C322.979 17.616 322.651 17.56 322.283 17.56C321.675 17.56 321.163 17.664 320.747 17.872C320.347 18.064 320.035 18.368 319.811 18.784C319.603 19.184 319.459 19.696 319.379 20.32ZM330.587 28V15.376H333.347L333.611 17.344H333.779C333.939 16.928 334.147 16.552 334.403 16.216C334.659 15.864 334.979 15.584 335.363 15.376C335.747 15.168 336.195 15.064 336.707 15.064C336.979 15.064 337.227 15.096 337.451 15.16C337.675 15.208 337.843 15.256 337.955 15.304V18.328H336.923C336.427 18.328 335.987 18.4 335.603 18.544C335.235 18.672 334.923 18.88 334.667 19.168C334.411 19.456 334.219 19.808 334.091 20.224C333.979 20.64 333.923 21.128 333.923 21.688V28H330.587Z" fill="#373F41"/>
<rect x="55.5" y="104.5" width="58" height="25" rx="4.5" stroke="black"/>
<path d="M68.7883 92V83.768H71.5123L72.6883 87.98C72.7363 88.132 72.7843 88.312 72.8323 88.52C72.8803 88.728 72.9283 88.936 72.9763 89.144C73.0323 89.344 73.0763 89.524 73.1083 89.684H73.2043C73.2203 89.548 73.2483 89.388 73.2883 89.204C73.3283 89.012 73.3723 88.808 73.4203 88.592C73.4683 88.376 73.5203 88.168 73.5763 87.968L74.7523 83.768H77.4283V92H75.6643V88.1C75.6643 87.74 75.6643 87.38 75.6643 87.02C75.6723 86.652 75.6803 86.332 75.6883 86.06C75.7043 85.788 75.7123 85.612 75.7123 85.532H75.6163C75.6003 85.62 75.5603 85.784 75.4963 86.024C75.4403 86.256 75.3763 86.504 75.3043 86.768C75.2403 87.032 75.1803 87.26 75.1243 87.452L73.8403 92H72.2803L70.9843 87.464C70.9363 87.296 70.8803 87.1 70.8163 86.876C70.7603 86.644 70.7043 86.408 70.6483 86.168C70.6003 85.92 70.5523 85.708 70.5043 85.532H70.4083C70.4163 85.748 70.4243 86.008 70.4323 86.312C70.4403 86.608 70.4483 86.916 70.4563 87.236C70.4643 87.548 70.4683 87.836 70.4683 88.1V92H68.7883ZM83.4532 92.144C82.5812 92.144 81.8292 91.988 81.1972 91.676C80.5652 91.364 80.0812 90.892 79.7452 90.26C79.4092 89.628 79.2412 88.836 79.2412 87.884C79.2412 86.916 79.4092 86.12 79.7452 85.496C80.0812 84.864 80.5652 84.396 81.1972 84.092C81.8292 83.78 82.5812 83.624 83.4532 83.624C84.3412 83.624 85.0972 83.78 85.7212 84.092C86.3532 84.396 86.8372 84.864 87.1732 85.496C87.5092 86.12 87.6772 86.916 87.6772 87.884C87.6772 88.836 87.5092 89.628 87.1732 90.26C86.8372 90.892 86.3532 91.364 85.7212 91.676C85.0972 91.988 84.3412 92.144 83.4532 92.144ZM83.4532 90.68C83.8452 90.68 84.1892 90.624 84.4852 90.512C84.7812 90.4 85.0292 90.232 85.2292 90.008C85.4292 89.784 85.5812 89.512 85.6852 89.192C85.7892 88.864 85.8412 88.492 85.8412 88.076V87.704C85.8412 87.28 85.7892 86.904 85.6852 86.576C85.5812 86.248 85.4292 85.976 85.2292 85.76C85.0292 85.536 84.7812 85.368 84.4852 85.256C84.1892 85.144 83.8452 85.088 83.4532 85.088C83.0692 85.088 82.7292 85.144 82.4332 85.256C82.1372 85.368 81.8892 85.536 81.6892 85.76C81.4892 85.976 81.3372 86.248 81.2332 86.576C81.1372 86.904 81.0892 87.28 81.0892 87.704V88.076C81.0892 88.492 81.1372 88.864 81.2332 89.192C81.3372 89.512 81.4892 89.784 81.6892 90.008C81.8892 90.232 82.1372 90.4 82.4332 90.512C82.7292 90.624 83.0692 90.68 83.4532 90.68ZM89.4888 92V83.768H91.1328L94.4448 88.208C94.4928 88.264 94.5528 88.344 94.6248 88.448C94.6968 88.544 94.7648 88.64 94.8288 88.736C94.8928 88.832 94.9368 88.908 94.9608 88.964H95.0208C95.0208 88.828 95.0208 88.696 95.0208 88.568C95.0208 88.432 95.0208 88.312 95.0208 88.208V83.768H96.7128V92H95.0688L91.6848 87.452C91.6048 87.34 91.5208 87.216 91.4328 87.08C91.3448 86.944 91.2808 86.84 91.2408 86.768H91.1808C91.1808 86.888 91.1808 87.008 91.1808 87.128C91.1808 87.24 91.1808 87.348 91.1808 87.452V92H89.4888Z" fill="black"/>
<line x1="55" y1="94.5" x2="485" y2="94.5" stroke="black"/>
<path d="M136.902 92V85.268H134.262V83.768H141.354V85.268H138.702V92H136.902ZM146.486 92.144C145.734 92.144 145.086 92.024 144.542 91.784C144.006 91.544 143.594 91.184 143.306 90.704C143.018 90.216 142.874 89.612 142.874 88.892V83.768H144.674V88.844C144.674 89.436 144.83 89.892 145.142 90.212C145.454 90.524 145.902 90.68 146.486 90.68C147.07 90.68 147.518 90.524 147.83 90.212C148.15 89.892 148.31 89.436 148.31 88.844V83.768H150.11V88.892C150.11 89.612 149.966 90.216 149.678 90.704C149.39 91.184 148.974 91.544 148.43 91.784C147.894 92.024 147.246 92.144 146.486 92.144ZM152.258 92V83.768H158.834V85.232H154.058V87.068H158.282V88.52H154.058V90.524H158.906V92H152.258Z" fill="black"/>
<path d="M194.344 92L192.184 83.768H194.08L195.28 88.676C195.304 88.748 195.328 88.856 195.352 89C195.376 89.136 195.4 89.28 195.424 89.432C195.448 89.584 195.468 89.72 195.484 89.84H195.544C195.56 89.752 195.572 89.652 195.58 89.54C195.596 89.428 195.612 89.32 195.628 89.216C195.652 89.104 195.672 89 195.688 88.904C195.712 88.808 195.728 88.732 195.736 88.676L196.852 83.768H198.988L200.128 88.676C200.152 88.756 200.176 88.864 200.2 89C200.224 89.136 200.248 89.28 200.272 89.432C200.296 89.584 200.316 89.72 200.332 89.84H200.392C200.408 89.752 200.424 89.656 200.44 89.552C200.464 89.448 200.484 89.344 200.5 89.24C200.524 89.128 200.548 89.024 200.572 88.928C200.596 88.832 200.616 88.748 200.632 88.676L201.82 83.768H203.536L201.364 92H199.324L198.112 86.936C198.088 86.824 198.06 86.696 198.028 86.552C198.004 86.4 197.98 86.252 197.956 86.108C197.932 85.964 197.912 85.836 197.896 85.724H197.848C197.832 85.836 197.812 85.968 197.788 86.12C197.772 86.272 197.748 86.42 197.716 86.564C197.692 86.708 197.668 86.832 197.644 86.936L196.444 92H194.344ZM204.914 92V83.768H211.49V85.232H206.714V87.068H210.938V88.52H206.714V90.524H211.562V92H204.914ZM213.465 92V83.768H216.825C217.681 83.768 218.409 83.916 219.009 84.212C219.609 84.508 220.069 84.96 220.389 85.568C220.717 86.168 220.881 86.94 220.881 87.884C220.881 88.82 220.717 89.592 220.389 90.2C220.069 90.808 219.609 91.26 219.009 91.556C218.409 91.852 217.681 92 216.825 92H213.465ZM215.253 90.524H216.813C217.173 90.524 217.493 90.472 217.773 90.368C218.053 90.264 218.285 90.112 218.469 89.912C218.653 89.704 218.793 89.448 218.889 89.144C218.985 88.832 219.033 88.472 219.033 88.064V87.704C219.033 87.296 218.985 86.94 218.889 86.636C218.793 86.324 218.653 86.068 218.469 85.868C218.285 85.66 218.053 85.504 217.773 85.4C217.493 85.288 217.173 85.232 216.813 85.232H215.253V90.524Z" fill="black"/>
<path d="M260.475 92V85.268H257.835V83.768H264.927V85.268H262.275V92H260.475ZM266.494 92V83.768H268.282V87.032H271.93V83.768H273.718V92H271.93V88.544H268.282V92H266.494ZM279.465 92.144C278.713 92.144 278.065 92.024 277.521 91.784C276.985 91.544 276.573 91.184 276.285 90.704C275.997 90.216 275.853 89.612 275.853 88.892V83.768H277.653V88.844C277.653 89.436 277.809 89.892 278.121 90.212C278.433 90.524 278.881 90.68 279.465 90.68C280.049 90.68 280.497 90.524 280.809 90.212C281.129 89.892 281.289 89.436 281.289 88.844V83.768H283.089V88.892C283.089 89.612 282.945 90.216 282.657 90.704C282.369 91.184 281.953 91.544 281.409 91.784C280.873 92.024 280.225 92.144 279.465 92.144Z" fill="black"/>
<path d="M323.382 92V83.768H329.454V85.232H325.17V87.272H328.998V88.724H325.17V92H323.382ZM331.207 92V83.768H335.719C336.327 83.768 336.831 83.876 337.231 84.092C337.639 84.308 337.943 84.612 338.143 85.004C338.343 85.388 338.443 85.832 338.443 86.336C338.443 86.872 338.323 87.348 338.083 87.764C337.843 88.172 337.495 88.484 337.039 88.7L338.719 92H336.739L335.287 89H332.995V92H331.207ZM332.995 87.584H335.479C335.839 87.584 336.119 87.476 336.319 87.26C336.519 87.036 336.619 86.736 336.619 86.36C336.619 86.12 336.575 85.916 336.487 85.748C336.399 85.572 336.271 85.44 336.103 85.352C335.935 85.264 335.727 85.22 335.479 85.22H332.995V87.584ZM340.333 92V83.768H342.121V92H340.333Z" fill="black"/>
<path d="M386.752 92.144C386.272 92.144 385.816 92.096 385.384 92C384.952 91.904 384.568 91.752 384.232 91.544C383.904 91.328 383.644 91.06 383.452 90.74C383.268 90.412 383.176 90.016 383.176 89.552C383.176 89.512 383.176 89.472 383.176 89.432C383.176 89.384 383.18 89.348 383.188 89.324H384.964C384.956 89.348 384.952 89.38 384.952 89.42C384.952 89.46 384.952 89.496 384.952 89.528C384.952 89.784 385.02 90 385.156 90.176C385.3 90.352 385.508 90.484 385.78 90.572C386.052 90.66 386.368 90.704 386.728 90.704C386.96 90.704 387.164 90.692 387.34 90.668C387.524 90.636 387.684 90.596 387.82 90.548C387.964 90.492 388.08 90.428 388.168 90.356C388.264 90.284 388.332 90.2 388.372 90.104C388.42 90.008 388.444 89.9 388.444 89.78C388.444 89.564 388.372 89.388 388.228 89.252C388.092 89.116 387.9 89 387.652 88.904C387.412 88.808 387.14 88.72 386.836 88.64C386.532 88.56 386.22 88.48 385.9 88.4C385.58 88.312 385.268 88.208 384.964 88.088C384.66 87.96 384.388 87.808 384.148 87.632C383.908 87.456 383.716 87.232 383.572 86.96C383.428 86.688 383.356 86.36 383.356 85.976C383.356 85.568 383.44 85.216 383.608 84.92C383.784 84.624 384.028 84.38 384.34 84.188C384.652 83.996 385.012 83.856 385.42 83.768C385.828 83.672 386.272 83.624 386.752 83.624C387.2 83.624 387.624 83.672 388.024 83.768C388.424 83.856 388.776 84 389.08 84.2C389.384 84.4 389.62 84.652 389.788 84.956C389.964 85.26 390.052 85.62 390.052 86.036V86.18H388.312V86.084C388.312 85.868 388.248 85.684 388.12 85.532C387.992 85.38 387.812 85.26 387.58 85.172C387.348 85.084 387.076 85.04 386.764 85.04C386.428 85.04 386.14 85.072 385.9 85.136C385.668 85.2 385.488 85.296 385.36 85.424C385.24 85.544 385.18 85.688 385.18 85.856C385.18 86.048 385.248 86.208 385.384 86.336C385.528 86.456 385.72 86.564 385.96 86.66C386.208 86.748 386.484 86.828 386.788 86.9C387.092 86.972 387.404 87.052 387.724 87.14C388.044 87.228 388.356 87.332 388.66 87.452C388.964 87.572 389.236 87.724 389.476 87.908C389.716 88.084 389.908 88.304 390.052 88.568C390.196 88.832 390.268 89.148 390.268 89.516C390.268 90.148 390.116 90.656 389.812 91.04C389.508 91.424 389.092 91.704 388.564 91.88C388.036 92.056 387.432 92.144 386.752 92.144ZM391.213 92L394.381 83.768H396.589L399.757 92H397.825L397.237 90.38H393.649L393.061 92H391.213ZM394.165 88.94H396.721L395.989 86.912C395.957 86.824 395.917 86.72 395.869 86.6C395.829 86.472 395.785 86.332 395.737 86.18C395.689 86.028 395.641 85.88 395.593 85.736C395.553 85.584 395.513 85.448 395.473 85.328H395.401C395.361 85.48 395.309 85.66 395.245 85.868C395.181 86.068 395.117 86.264 395.053 86.456C394.989 86.64 394.937 86.792 394.897 86.912L394.165 88.94ZM402.116 92V85.268H399.476V83.768H406.568V85.268H403.916V92H402.116Z" fill="black"/>
<path d="M447.422 92.144C446.942 92.144 446.486 92.096 446.054 92C445.622 91.904 445.238 91.752 444.902 91.544C444.574 91.328 444.314 91.06 444.122 90.74C443.938 90.412 443.846 90.016 443.846 89.552C443.846 89.512 443.846 89.472 443.846 89.432C443.846 89.384 443.85 89.348 443.858 89.324H445.634C445.626 89.348 445.622 89.38 445.622 89.42C445.622 89.46 445.622 89.496 445.622 89.528C445.622 89.784 445.69 90 445.826 90.176C445.97 90.352 446.178 90.484 446.45 90.572C446.722 90.66 447.038 90.704 447.398 90.704C447.63 90.704 447.834 90.692 448.01 90.668C448.194 90.636 448.354 90.596 448.49 90.548C448.634 90.492 448.75 90.428 448.838 90.356C448.934 90.284 449.002 90.2 449.042 90.104C449.09 90.008 449.114 89.9 449.114 89.78C449.114 89.564 449.042 89.388 448.898 89.252C448.762 89.116 448.57 89 448.322 88.904C448.082 88.808 447.81 88.72 447.506 88.64C447.202 88.56 446.89 88.48 446.57 88.4C446.25 88.312 445.938 88.208 445.634 88.088C445.33 87.96 445.058 87.808 444.818 87.632C444.578 87.456 444.386 87.232 444.242 86.96C444.098 86.688 444.026 86.36 444.026 85.976C444.026 85.568 444.11 85.216 444.278 84.92C444.454 84.624 444.698 84.38 445.01 84.188C445.322 83.996 445.682 83.856 446.09 83.768C446.498 83.672 446.942 83.624 447.422 83.624C447.87 83.624 448.294 83.672 448.694 83.768C449.094 83.856 449.446 84 449.75 84.2C450.054 84.4 450.29 84.652 450.458 84.956C450.634 85.26 450.722 85.62 450.722 86.036V86.18H448.982V86.084C448.982 85.868 448.918 85.684 448.79 85.532C448.662 85.38 448.482 85.26 448.25 85.172C448.018 85.084 447.746 85.04 447.434 85.04C447.098 85.04 446.81 85.072 446.57 85.136C446.338 85.2 446.158 85.296 446.03 85.424C445.91 85.544 445.85 85.688 445.85 85.856C445.85 86.048 445.918 86.208 446.054 86.336C446.198 86.456 446.39 86.564 446.63 86.66C446.878 86.748 447.154 86.828 447.458 86.9C447.762 86.972 448.074 87.052 448.394 87.14C448.714 87.228 449.026 87.332 449.33 87.452C449.634 87.572 449.906 87.724 450.146 87.908C450.386 88.084 450.578 88.304 450.722 88.568C450.866 88.832 450.938 89.148 450.938 89.516C450.938 90.148 450.786 90.656 450.482 91.04C450.178 91.424 449.762 91.704 449.234 91.88C448.706 92.056 448.102 92.144 447.422 92.144ZM456.287 92.144C455.535 92.144 454.887 92.024 454.343 91.784C453.807 91.544 453.395 91.184 453.107 90.704C452.819 90.216 452.675 89.612 452.675 88.892V83.768H454.475V88.844C454.475 89.436 454.631 89.892 454.943 90.212C455.255 90.524 455.703 90.68 456.287 90.68C456.871 90.68 457.319 90.524 457.631 90.212C457.951 89.892 458.111 89.436 458.111 88.844V83.768H459.911V88.892C459.911 89.612 459.767 90.216 459.479 90.704C459.191 91.184 458.775 91.544 458.231 91.784C457.695 92.024 457.047 92.144 456.287 92.144ZM462.059 92V83.768H463.703L467.015 88.208C467.063 88.264 467.123 88.344 467.195 88.448C467.267 88.544 467.335 88.64 467.399 88.736C467.463 88.832 467.507 88.908 467.531 88.964H467.591C467.591 88.828 467.591 88.696 467.591 88.568C467.591 88.432 467.591 88.312 467.591 88.208V83.768H469.283V92H467.639L464.255 87.452C464.175 87.34 464.091 87.216 464.003 87.08C463.915 86.944 463.851 86.84 463.811 86.768H463.751C463.751 86.888 463.751 87.008 463.751 87.128C463.751 87.24 463.751 87.348 463.751 87.452V92H462.059Z" fill="black"/>
<path d="M76.6939 120.12C76.1872 120.12 75.7639 120.027 75.4239 119.84C75.0906 119.653 74.8406 119.397 74.6739 119.07C74.5072 118.743 74.4239 118.367 74.4239 117.94H75.7839C75.7839 118.173 75.8172 118.373 75.8839 118.54C75.9506 118.707 76.0539 118.833 76.1939 118.92C76.3339 119 76.5106 119.04 76.7239 119.04C77.0372 119.04 77.2739 118.96 77.4339 118.8C77.5939 118.633 77.7006 118.393 77.7539 118.08C77.8139 117.76 77.8472 117.38 77.8539 116.94C77.7939 117.007 77.6939 117.087 77.5539 117.18C77.4206 117.273 77.2506 117.357 77.0439 117.43C76.8439 117.497 76.6206 117.53 76.3739 117.53C75.9006 117.53 75.5039 117.437 75.1839 117.25C74.8639 117.063 74.6206 116.8 74.4539 116.46C74.2939 116.12 74.2139 115.737 74.2139 115.31C74.2139 114.83 74.3172 114.42 74.5239 114.08C74.7306 113.74 75.0172 113.48 75.3839 113.3C75.7506 113.113 76.1706 113.02 76.6439 113.02C77.0639 113.02 77.4372 113.08 77.7639 113.2C78.0906 113.313 78.3639 113.5 78.5839 113.76C78.8106 114.02 78.9806 114.367 79.0939 114.8C79.2139 115.227 79.2739 115.75 79.2739 116.37C79.2739 117.07 79.2172 117.66 79.1039 118.14C78.9906 118.62 78.8239 119.007 78.6039 119.3C78.3906 119.587 78.1206 119.797 77.7939 119.93C77.4739 120.057 77.1072 120.12 76.6939 120.12ZM76.6939 116.51C76.9406 116.51 77.1439 116.46 77.3039 116.36C77.4706 116.253 77.5906 116.11 77.6639 115.93C77.7439 115.743 77.7839 115.533 77.7839 115.3C77.7839 115.06 77.7439 114.85 77.6639 114.67C77.5906 114.49 77.4706 114.35 77.3039 114.25C77.1439 114.143 76.9406 114.09 76.6939 114.09C76.4539 114.09 76.2539 114.143 76.0939 114.25C75.9339 114.357 75.8139 114.5 75.7339 114.68C75.6539 114.86 75.6139 115.067 75.6139 115.3C75.6139 115.54 75.6539 115.75 75.7339 115.93C75.8139 116.11 75.9339 116.253 76.0939 116.36C76.2539 116.46 76.4539 116.51 76.6939 116.51ZM80.8516 117.9V116.68H83.3816V117.9H80.8516ZM85.482 120V118.88H87.122V114.83H85.472V113.99C85.692 113.97 85.9454 113.92 86.232 113.84C86.5254 113.753 86.8187 113.65 87.112 113.53C87.4054 113.403 87.6687 113.27 87.902 113.13H88.522V118.88H90.052V120H85.482ZM91.2491 120V119.64C91.2491 119.34 91.3024 119.067 91.4091 118.82C91.5157 118.573 91.6624 118.347 91.8491 118.14C92.0357 117.933 92.2424 117.737 92.4691 117.55C92.6957 117.363 92.9291 117.183 93.1691 117.01C93.4424 116.803 93.6991 116.6 93.9391 116.4C94.1857 116.2 94.3857 115.987 94.5391 115.76C94.6924 115.527 94.7691 115.27 94.7691 114.99C94.7691 114.857 94.7357 114.723 94.6691 114.59C94.6024 114.457 94.4957 114.347 94.3491 114.26C94.2091 114.167 94.0191 114.12 93.7791 114.12C93.5324 114.12 93.3291 114.163 93.1691 114.25C93.0091 114.33 92.8857 114.447 92.7991 114.6C92.7191 114.747 92.6791 114.93 92.6791 115.15V115.51H91.3391C91.3324 115.477 91.3257 115.43 91.3191 115.37C91.3124 115.31 91.3091 115.237 91.3091 115.15C91.3091 114.663 91.4191 114.263 91.6391 113.95C91.8657 113.637 92.1691 113.403 92.5491 113.25C92.9357 113.097 93.3724 113.02 93.8591 113.02C94.2991 113.02 94.6657 113.083 94.9591 113.21C95.2591 113.33 95.4991 113.493 95.6791 113.7C95.8591 113.9 95.9857 114.12 96.0591 114.36C96.1391 114.593 96.1791 114.82 96.1791 115.04C96.1791 115.353 96.1224 115.64 96.0091 115.9C95.8957 116.16 95.7424 116.403 95.5491 116.63C95.3557 116.857 95.1257 117.077 94.8591 117.29C94.5924 117.497 94.3091 117.703 94.0091 117.91C93.8557 118.017 93.7091 118.12 93.5691 118.22C93.4357 118.32 93.3191 118.417 93.2191 118.51C93.1257 118.597 93.0524 118.683 92.9991 118.77H96.2291V120H91.2491Z" fill="black"/>
<rect x="55.5" y="133.5" width="58" height="25" rx="4.5" stroke="black"/>
<path d="M71.1756 149V148.64C71.1756 148.34 71.229 148.067 71.3356 147.82C71.4423 147.573 71.589 147.347 71.7756 147.14C71.9623 146.933 72.169 146.737 72.3956 146.55C72.6223 146.363 72.8556 146.183 73.0956 146.01C73.369 145.803 73.6256 145.6 73.8656 145.4C74.1123 145.2 74.3123 144.987 74.4656 144.76C74.619 144.527 74.6956 144.27 74.6956 143.99C74.6956 143.857 74.6623 143.723 74.5956 143.59C74.529 143.457 74.4223 143.347 74.2756 143.26C74.1356 143.167 73.9456 143.12 73.7056 143.12C73.459 143.12 73.2556 143.163 73.0956 143.25C72.9356 143.33 72.8123 143.447 72.7256 143.6C72.6456 143.747 72.6056 143.93 72.6056 144.15V144.51H71.2656C71.259 144.477 71.2523 144.43 71.2456 144.37C71.239 144.31 71.2356 144.237 71.2356 144.15C71.2356 143.663 71.3456 143.263 71.5656 142.95C71.7923 142.637 72.0956 142.403 72.4756 142.25C72.8623 142.097 73.299 142.02 73.7856 142.02C74.2256 142.02 74.5923 142.083 74.8856 142.21C75.1856 142.33 75.4256 142.493 75.6056 142.7C75.7856 142.9 75.9123 143.12 75.9856 143.36C76.0656 143.593 76.1056 143.82 76.1056 144.04C76.1056 144.353 76.049 144.64 75.9356 144.9C75.8223 145.16 75.669 145.403 75.4756 145.63C75.2823 145.857 75.0523 146.077 74.7856 146.29C74.519 146.497 74.2356 146.703 73.9356 146.91C73.7823 147.017 73.6356 147.12 73.4956 147.22C73.3623 147.32 73.2456 147.417 73.1456 147.51C73.0523 147.597 72.979 147.683 72.9256 147.77H76.1556V149H71.1756ZM77.9227 149V147.88H79.5627V143.83H77.9127V142.99C78.1327 142.97 78.386 142.92 78.6727 142.84C78.966 142.753 79.2593 142.65 79.5527 142.53C79.846 142.403 80.1093 142.27 80.3427 142.13H80.9627V147.88H82.4927V149H77.9227ZM83.9801 146.9V145.68H86.5101V146.9H83.9801ZM88.1205 149V148.64C88.1205 148.34 88.1739 148.067 88.2805 147.82C88.3872 147.573 88.5339 147.347 88.7205 147.14C88.9072 146.933 89.1139 146.737 89.3405 146.55C89.5672 146.363 89.8005 146.183 90.0405 146.01C90.3139 145.803 90.5705 145.6 90.8105 145.4C91.0572 145.2 91.2572 144.987 91.4105 144.76C91.5639 144.527 91.6405 144.27 91.6405 143.99C91.6405 143.857 91.6072 143.723 91.5405 143.59C91.4739 143.457 91.3672 143.347 91.2205 143.26C91.0805 143.167 90.8905 143.12 90.6505 143.12C90.4039 143.12 90.2005 143.163 90.0405 143.25C89.8805 143.33 89.7572 143.447 89.6705 143.6C89.5905 143.747 89.5505 143.93 89.5505 144.15V144.51H88.2105C88.2039 144.477 88.1972 144.43 88.1905 144.37C88.1839 144.31 88.1805 144.237 88.1805 144.15C88.1805 143.663 88.2905 143.263 88.5105 142.95C88.7372 142.637 89.0405 142.403 89.4205 142.25C89.8072 142.097 90.2439 142.02 90.7305 142.02C91.1705 142.02 91.5372 142.083 91.8305 142.21C92.1305 142.33 92.3705 142.493 92.5505 142.7C92.7305 142.9 92.8572 143.12 92.9305 143.36C93.0105 143.593 93.0505 143.82 93.0505 144.04C93.0505 144.353 92.9939 144.64 92.8805 144.9C92.7672 145.16 92.6139 145.403 92.4205 145.63C92.2272 145.857 91.9972 146.077 91.7305 146.29C91.4639 146.497 91.1805 146.703 90.8805 146.91C90.7272 147.017 90.5805 147.12 90.4405 147.22C90.3072 147.32 90.1905 147.417 90.0905 147.51C89.9972 147.597 89.9239 147.683 89.8705 147.77H93.1005V149H88.1205ZM97.2476 149V147.5H94.1576V146.39C94.4176 145.977 94.6609 145.54 94.8876 145.08C95.1142 144.62 95.3242 144.133 95.5176 143.62C95.7176 143.107 95.8842 142.573 96.0176 142.02H97.4476C97.3742 142.34 97.2709 142.677 97.1376 143.03C97.0109 143.383 96.8642 143.733 96.6976 144.08C96.5309 144.427 96.3609 144.753 96.1876 145.06C96.0209 145.36 95.8609 145.627 95.7076 145.86C95.5542 146.093 95.4242 146.27 95.3176 146.39H97.2476V144.73C97.3142 144.603 97.3809 144.467 97.4476 144.32C97.5209 144.167 97.5909 144.013 97.6576 143.86C97.7242 143.7 97.7842 143.543 97.8376 143.39C97.8976 143.237 97.9442 143.093 97.9776 142.96H98.6176V146.39H99.4976V147.5H98.6176V149H97.2476Z" fill="black"/>
<rect x="117.5" y="104.5" width="58" height="25" rx="4.5" stroke="black"/>
<path d="M138.694 120.12C138.187 120.12 137.764 120.027 137.424 119.84C137.091 119.653 136.841 119.397 136.674 119.07C136.507 118.743 136.424 118.367 136.424 117.94H137.784C137.784 118.173 137.817 118.373 137.884 118.54C137.951 118.707 138.054 118.833 138.194 118.92C138.334 119 138.511 119.04 138.724 119.04C139.037 119.04 139.274 118.96 139.434 118.8C139.594 118.633 139.701 118.393 139.754 118.08C139.814 117.76 139.847 117.38 139.854 116.94C139.794 117.007 139.694 117.087 139.554 117.18C139.421 117.273 139.251 117.357 139.044 117.43C138.844 117.497 138.621 117.53 138.374 117.53C137.901 117.53 137.504 117.437 137.184 117.25C136.864 117.063 136.621 116.8 136.454 116.46C136.294 116.12 136.214 115.737 136.214 115.31C136.214 114.83 136.317 114.42 136.524 114.08C136.731 113.74 137.017 113.48 137.384 113.3C137.751 113.113 138.171 113.02 138.644 113.02C139.064 113.02 139.437 113.08 139.764 113.2C140.091 113.313 140.364 113.5 140.584 113.76C140.811 114.02 140.981 114.367 141.094 114.8C141.214 115.227 141.274 115.75 141.274 116.37C141.274 117.07 141.217 117.66 141.104 118.14C140.991 118.62 140.824 119.007 140.604 119.3C140.391 119.587 140.121 119.797 139.794 119.93C139.474 120.057 139.107 120.12 138.694 120.12ZM138.694 116.51C138.941 116.51 139.144 116.46 139.304 116.36C139.471 116.253 139.591 116.11 139.664 115.93C139.744 115.743 139.784 115.533 139.784 115.3C139.784 115.06 139.744 114.85 139.664 114.67C139.591 114.49 139.471 114.35 139.304 114.25C139.144 114.143 138.941 114.09 138.694 114.09C138.454 114.09 138.254 114.143 138.094 114.25C137.934 114.357 137.814 114.5 137.734 114.68C137.654 114.86 137.614 115.067 137.614 115.3C137.614 115.54 137.654 115.75 137.734 115.93C137.814 116.11 137.934 116.253 138.094 116.36C138.254 116.46 138.454 116.51 138.694 116.51ZM142.852 117.9V116.68H145.382V117.9H142.852ZM147.482 120V118.88H149.122V114.83H147.472V113.99C147.692 113.97 147.945 113.92 148.232 113.84C148.525 113.753 148.819 113.65 149.112 113.53C149.405 113.403 149.669 113.27 149.902 113.13H150.522V118.88H152.052V120H147.482ZM153.249 120V119.64C153.249 119.34 153.302 119.067 153.409 118.82C153.516 118.573 153.662 118.347 153.849 118.14C154.036 117.933 154.242 117.737 154.469 117.55C154.696 117.363 154.929 117.183 155.169 117.01C155.442 116.803 155.699 116.6 155.939 116.4C156.186 116.2 156.386 115.987 156.539 115.76C156.692 115.527 156.769 115.27 156.769 114.99C156.769 114.857 156.736 114.723 156.669 114.59C156.602 114.457 156.496 114.347 156.349 114.26C156.209 114.167 156.019 114.12 155.779 114.12C155.532 114.12 155.329 114.163 155.169 114.25C155.009 114.33 154.886 114.447 154.799 114.6C154.719 114.747 154.679 114.93 154.679 115.15V115.51H153.339C153.332 115.477 153.326 115.43 153.319 115.37C153.312 115.31 153.309 115.237 153.309 115.15C153.309 114.663 153.419 114.263 153.639 113.95C153.866 113.637 154.169 113.403 154.549 113.25C154.936 113.097 155.372 113.02 155.859 113.02C156.299 113.02 156.666 113.083 156.959 113.21C157.259 113.33 157.499 113.493 157.679 113.7C157.859 113.9 157.986 114.12 158.059 114.36C158.139 114.593 158.179 114.82 158.179 115.04C158.179 115.353 158.122 115.64 158.009 115.9C157.896 116.16 157.742 116.403 157.549 116.63C157.356 116.857 157.126 117.077 156.859 117.29C156.592 117.497 156.309 117.703 156.009 117.91C155.856 118.017 155.709 118.12 155.569 118.22C155.436 118.32 155.319 118.417 155.219 118.51C155.126 118.597 155.052 118.683 154.999 118.77H158.229V120H153.249Z" fill="black"/>
<rect x="117.5" y="133.5" width="58" height="25" rx="4.5" stroke="black"/>
<path d="M133.827 149V147.88H135.467V143.83H133.817V142.99C134.037 142.97 134.29 142.92 134.577 142.84C134.87 142.753 135.163 142.65 135.457 142.53C135.75 142.403 136.013 142.27 136.247 142.13H136.867V147.88H138.397V149H133.827ZM139.594 149V148.64C139.594 148.34 139.647 148.067 139.754 147.82C139.86 147.573 140.007 147.347 140.194 147.14C140.38 146.933 140.587 146.737 140.814 146.55C141.04 146.363 141.274 146.183 141.514 146.01C141.787 145.803 142.044 145.6 142.284 145.4C142.53 145.2 142.73 144.987 142.884 144.76C143.037 144.527 143.114 144.27 143.114 143.99C143.114 143.857 143.08 143.723 143.014 143.59C142.947 143.457 142.84 143.347 142.694 143.26C142.554 143.167 142.364 143.12 142.124 143.12C141.877 143.12 141.674 143.163 141.514 143.25C141.354 143.33 141.23 143.447 141.144 143.6C141.064 143.747 141.024 143.93 141.024 144.15V144.51H139.684C139.677 144.477 139.67 144.43 139.664 144.37C139.657 144.31 139.654 144.237 139.654 144.15C139.654 143.663 139.764 143.263 139.984 142.95C140.21 142.637 140.514 142.403 140.894 142.25C141.28 142.097 141.717 142.02 142.204 142.02C142.644 142.02 143.01 142.083 143.304 142.21C143.604 142.33 143.844 142.493 144.024 142.7C144.204 142.9 144.33 143.12 144.404 143.36C144.484 143.593 144.524 143.82 144.524 144.04C144.524 144.353 144.467 144.64 144.354 144.9C144.24 145.16 144.087 145.403 143.894 145.63C143.7 145.857 143.47 146.077 143.204 146.29C142.937 146.497 142.654 146.703 142.354 146.91C142.2 147.017 142.054 147.12 141.914 147.22C141.78 147.32 141.664 147.417 141.564 147.51C141.47 147.597 141.397 147.683 141.344 147.77H144.574V149H139.594ZM145.838 146.9V145.68H148.368V146.9H145.838ZM150.469 149V147.88H152.109V143.83H150.459V142.99C150.679 142.97 150.932 142.92 151.219 142.84C151.512 142.753 151.806 142.65 152.099 142.53C152.392 142.403 152.656 142.27 152.889 142.13H153.509V147.88H155.039V149H150.469ZM158.716 149.12C158.196 149.12 157.743 149.03 157.356 148.85C156.976 148.663 156.683 148.4 156.476 148.06C156.269 147.72 156.166 147.317 156.166 146.85H157.536C157.536 147.083 157.579 147.293 157.666 147.48C157.759 147.66 157.893 147.8 158.066 147.9C158.239 147.993 158.443 148.04 158.676 148.04C158.903 148.04 159.096 147.99 159.256 147.89C159.423 147.79 159.553 147.647 159.646 147.46C159.739 147.267 159.786 147.03 159.786 146.75C159.786 146.49 159.739 146.273 159.646 146.1C159.559 145.92 159.433 145.787 159.266 145.7C159.106 145.607 158.916 145.56 158.696 145.56C158.523 145.56 158.369 145.59 158.236 145.65C158.109 145.703 157.999 145.77 157.906 145.85C157.813 145.93 157.733 146.017 157.666 146.11L156.416 145.95L156.696 142.14H160.816V143.37H157.856L157.746 144.92C157.819 144.867 157.916 144.81 158.036 144.75C158.156 144.69 158.303 144.637 158.476 144.59C158.656 144.537 158.863 144.51 159.096 144.51C159.496 144.51 159.853 144.593 160.166 144.76C160.486 144.927 160.739 145.177 160.926 145.51C161.113 145.837 161.206 146.253 161.206 146.76C161.206 147.247 161.103 147.667 160.896 148.02C160.696 148.373 160.409 148.647 160.036 148.84C159.669 149.027 159.229 149.12 158.716 149.12Z" fill="black"/>
<rect x="179.5" y="104.5" width="58" height="25" rx="4.5" stroke="black"/>
<path d="M195.176 120V119.64C195.176 119.34 195.229 119.067 195.336 118.82C195.442 118.573 195.589 118.347 195.776 118.14C195.962 117.933 196.169 117.737 196.396 117.55C196.622 117.363 196.856 117.183 197.096 117.01C197.369 116.803 197.626 116.6 197.866 116.4C198.112 116.2 198.312 115.987 198.466 115.76C198.619 115.527 198.696 115.27 198.696 114.99C198.696 114.857 198.662 114.723 198.596 114.59C198.529 114.457 198.422 114.347 198.276 114.26C198.136 114.167 197.946 114.12 197.706 114.12C197.459 114.12 197.256 114.163 197.096 114.25C196.936 114.33 196.812 114.447 196.726 114.6C196.646 114.747 196.606 114.93 196.606 115.15V115.51H195.266C195.259 115.477 195.252 115.43 195.246 115.37C195.239 115.31 195.236 115.237 195.236 115.15C195.236 114.663 195.346 114.263 195.566 113.95C195.792 113.637 196.096 113.403 196.476 113.25C196.862 113.097 197.299 113.02 197.786 113.02C198.226 113.02 198.592 113.083 198.886 113.21C199.186 113.33 199.426 113.493 199.606 113.7C199.786 113.9 199.912 114.12 199.986 114.36C200.066 114.593 200.106 114.82 200.106 115.04C200.106 115.353 200.049 115.64 199.936 115.9C199.822 116.16 199.669 116.403 199.476 116.63C199.282 116.857 199.052 117.077 198.786 117.29C198.519 117.497 198.236 117.703 197.936 117.91C197.782 118.017 197.636 118.12 197.496 118.22C197.362 118.32 197.246 118.417 197.146 118.51C197.052 118.597 196.979 118.683 196.926 118.77H200.156V120H195.176ZM201.923 120V118.88H203.563V114.83H201.913V113.99C202.133 113.97 202.386 113.92 202.673 113.84C202.966 113.753 203.259 113.65 203.553 113.53C203.846 113.403 204.109 113.27 204.343 113.13H204.963V118.88H206.493V120H201.923ZM207.98 117.9V116.68H210.51V117.9H207.98ZM212.121 120V119.64C212.121 119.34 212.174 119.067 212.281 118.82C212.387 118.573 212.534 118.347 212.721 118.14C212.907 117.933 213.114 117.737 213.341 117.55C213.567 117.363 213.801 117.183 214.041 117.01C214.314 116.803 214.571 116.6 214.811 116.4C215.057 116.2 215.257 115.987 215.411 115.76C215.564 115.527 215.641 115.27 215.641 114.99C215.641 114.857 215.607 114.723 215.541 114.59C215.474 114.457 215.367 114.347 215.221 114.26C215.081 114.167 214.891 114.12 214.651 114.12C214.404 114.12 214.201 114.163 214.041 114.25C213.881 114.33 213.757 114.447 213.671 114.6C213.591 114.747 213.551 114.93 213.551 115.15V115.51H212.211C212.204 115.477 212.197 115.43 212.191 115.37C212.184 115.31 212.181 115.237 212.181 115.15C212.181 114.663 212.291 114.263 212.511 113.95C212.737 113.637 213.041 113.403 213.421 113.25C213.807 113.097 214.244 113.02 214.731 113.02C215.171 113.02 215.537 113.083 215.831 113.21C216.131 113.33 216.371 113.493 216.551 113.7C216.731 113.9 216.857 114.12 216.931 114.36C217.011 114.593 217.051 114.82 217.051 115.04C217.051 115.353 216.994 115.64 216.881 115.9C216.767 116.16 216.614 116.403 216.421 116.63C216.227 116.857 215.997 117.077 215.731 117.29C215.464 117.497 215.181 117.703 214.881 117.91C214.727 118.017 214.581 118.12 214.441 118.22C214.307 118.32 214.191 118.417 214.091 118.51C213.997 118.597 213.924 118.683 213.871 118.77H217.101V120H212.121ZM221.248 120V118.5H218.158V117.39C218.418 116.977 218.661 116.54 218.888 116.08C219.114 115.62 219.324 115.133 219.518 114.62C219.718 114.107 219.884 113.573 220.018 113.02H221.448C221.374 113.34 221.271 113.677 221.138 114.03C221.011 114.383 220.864 114.733 220.698 115.08C220.531 115.427 220.361 115.753 220.188 116.06C220.021 116.36 219.861 116.627 219.708 116.86C219.554 117.093 219.424 117.27 219.318 117.39H221.248V115.73C221.314 115.603 221.381 115.467 221.448 115.32C221.521 115.167 221.591 115.013 221.658 114.86C221.724 114.7 221.784 114.543 221.838 114.39C221.898 114.237 221.944 114.093 221.978 113.96H222.618V117.39H223.498V118.5H222.618V120H221.248Z" fill="black"/>
<rect x="303.5" y="104.5" width="58" height="25" rx="4.5" stroke="black"/>
<path d="M324.694 120.12C324.187 120.12 323.764 120.027 323.424 119.84C323.091 119.653 322.841 119.397 322.674 119.07C322.507 118.743 322.424 118.367 322.424 117.94H323.784C323.784 118.173 323.817 118.373 323.884 118.54C323.951 118.707 324.054 118.833 324.194 118.92C324.334 119 324.511 119.04 324.724 119.04C325.037 119.04 325.274 118.96 325.434 118.8C325.594 118.633 325.701 118.393 325.754 118.08C325.814 117.76 325.847 117.38 325.854 116.94C325.794 117.007 325.694 117.087 325.554 117.18C325.421 117.273 325.251 117.357 325.044 117.43C324.844 117.497 324.621 117.53 324.374 117.53C323.901 117.53 323.504 117.437 323.184 117.25C322.864 117.063 322.621 116.8 322.454 116.46C322.294 116.12 322.214 115.737 322.214 115.31C322.214 114.83 322.317 114.42 322.524 114.08C322.731 113.74 323.017 113.48 323.384 113.3C323.751 113.113 324.171 113.02 324.644 113.02C325.064 113.02 325.437 113.08 325.764 113.2C326.091 113.313 326.364 113.5 326.584 113.76C326.811 114.02 326.981 114.367 327.094 114.8C327.214 115.227 327.274 115.75 327.274 116.37C327.274 117.07 327.217 117.66 327.104 118.14C326.991 118.62 326.824 119.007 326.604 119.3C326.391 119.587 326.121 119.797 325.794 119.93C325.474 120.057 325.107 120.12 324.694 120.12ZM324.694 116.51C324.941 116.51 325.144 116.46 325.304 116.36C325.471 116.253 325.591 116.11 325.664 115.93C325.744 115.743 325.784 115.533 325.784 115.3C325.784 115.06 325.744 114.85 325.664 114.67C325.591 114.49 325.471 114.35 325.304 114.25C325.144 114.143 324.941 114.09 324.694 114.09C324.454 114.09 324.254 114.143 324.094 114.25C323.934 114.357 323.814 114.5 323.734 114.68C323.654 114.86 323.614 115.067 323.614 115.3C323.614 115.54 323.654 115.75 323.734 115.93C323.814 116.11 323.934 116.253 324.094 116.36C324.254 116.46 324.454 116.51 324.694 116.51ZM328.852 117.9V116.68H331.382V117.9H328.852ZM333.482 120V118.88H335.122V114.83H333.472V113.99C333.692 113.97 333.945 113.92 334.232 113.84C334.525 113.753 334.819 113.65 335.112 113.53C335.405 113.403 335.669 113.27 335.902 113.13H336.522V118.88H338.052V120H333.482ZM339.249 120V119.64C339.249 119.34 339.302 119.067 339.409 118.82C339.516 118.573 339.662 118.347 339.849 118.14C340.036 117.933 340.242 117.737 340.469 117.55C340.696 117.363 340.929 117.183 341.169 117.01C341.442 116.803 341.699 116.6 341.939 116.4C342.186 116.2 342.386 115.987 342.539 115.76C342.692 115.527 342.769 115.27 342.769 114.99C342.769 114.857 342.736 114.723 342.669 114.59C342.602 114.457 342.496 114.347 342.349 114.26C342.209 114.167 342.019 114.12 341.779 114.12C341.532 114.12 341.329 114.163 341.169 114.25C341.009 114.33 340.886 114.447 340.799 114.6C340.719 114.747 340.679 114.93 340.679 115.15V115.51H339.339C339.332 115.477 339.326 115.43 339.319 115.37C339.312 115.31 339.309 115.237 339.309 115.15C339.309 114.663 339.419 114.263 339.639 113.95C339.866 113.637 340.169 113.403 340.549 113.25C340.936 113.097 341.372 113.02 341.859 113.02C342.299 113.02 342.666 113.083 342.959 113.21C343.259 113.33 343.499 113.493 343.679 113.7C343.859 113.9 343.986 114.12 344.059 114.36C344.139 114.593 344.179 114.82 344.179 115.04C344.179 115.353 344.122 115.64 344.009 115.9C343.896 116.16 343.742 116.403 343.549 116.63C343.356 116.857 343.126 117.077 342.859 117.29C342.592 117.497 342.309 117.703 342.009 117.91C341.856 118.017 341.709 118.12 341.569 118.22C341.436 118.32 341.319 118.417 341.219 118.51C341.126 118.597 341.052 118.683 340.999 118.77H344.229V120H339.249Z" fill="black"/>
<rect x="427.5" y="103.5" width="58" height="25" rx="4.5" stroke="black"/>
<path d="M448.694 119.12C448.187 119.12 447.764 119.027 447.424 118.84C447.091 118.653 446.841 118.397 446.674 118.07C446.507 117.743 446.424 117.367 446.424 116.94H447.784C447.784 117.173 447.817 117.373 447.884 117.54C447.951 117.707 448.054 117.833 448.194 117.92C448.334 118 448.511 118.04 448.724 118.04C449.037 118.04 449.274 117.96 449.434 117.8C449.594 117.633 449.701 117.393 449.754 117.08C449.814 116.76 449.847 116.38 449.854 115.94C449.794 116.007 449.694 116.087 449.554 116.18C449.421 116.273 449.251 116.357 449.044 116.43C448.844 116.497 448.621 116.53 448.374 116.53C447.901 116.53 447.504 116.437 447.184 116.25C446.864 116.063 446.621 115.8 446.454 115.46C446.294 115.12 446.214 114.737 446.214 114.31C446.214 113.83 446.317 113.42 446.524 113.08C446.731 112.74 447.017 112.48 447.384 112.3C447.751 112.113 448.171 112.02 448.644 112.02C449.064 112.02 449.437 112.08 449.764 112.2C450.091 112.313 450.364 112.5 450.584 112.76C450.811 113.02 450.981 113.367 451.094 113.8C451.214 114.227 451.274 114.75 451.274 115.37C451.274 116.07 451.217 116.66 451.104 117.14C450.991 117.62 450.824 118.007 450.604 118.3C450.391 118.587 450.121 118.797 449.794 118.93C449.474 119.057 449.107 119.12 448.694 119.12ZM448.694 115.51C448.941 115.51 449.144 115.46 449.304 115.36C449.471 115.253 449.591 115.11 449.664 114.93C449.744 114.743 449.784 114.533 449.784 114.3C449.784 114.06 449.744 113.85 449.664 113.67C449.591 113.49 449.471 113.35 449.304 113.25C449.144 113.143 448.941 113.09 448.694 113.09C448.454 113.09 448.254 113.143 448.094 113.25C447.934 113.357 447.814 113.5 447.734 113.68C447.654 113.86 447.614 114.067 447.614 114.3C447.614 114.54 447.654 114.75 447.734 114.93C447.814 115.11 447.934 115.253 448.094 115.36C448.254 115.46 448.454 115.51 448.694 115.51ZM452.852 116.9V115.68H455.382V116.9H452.852ZM457.482 119V117.88H459.122V113.83H457.472V112.99C457.692 112.97 457.945 112.92 458.232 112.84C458.525 112.753 458.819 112.65 459.112 112.53C459.405 112.403 459.669 112.27 459.902 112.13H460.522V117.88H462.052V119H457.482ZM463.249 119V118.64C463.249 118.34 463.302 118.067 463.409 117.82C463.516 117.573 463.662 117.347 463.849 117.14C464.036 116.933 464.242 116.737 464.469 116.55C464.696 116.363 464.929 116.183 465.169 116.01C465.442 115.803 465.699 115.6 465.939 115.4C466.186 115.2 466.386 114.987 466.539 114.76C466.692 114.527 466.769 114.27 466.769 113.99C466.769 113.857 466.736 113.723 466.669 113.59C466.602 113.457 466.496 113.347 466.349 113.26C466.209 113.167 466.019 113.12 465.779 113.12C465.532 113.12 465.329 113.163 465.169 113.25C465.009 113.33 464.886 113.447 464.799 113.6C464.719 113.747 464.679 113.93 464.679 114.15V114.51H463.339C463.332 114.477 463.326 114.43 463.319 114.37C463.312 114.31 463.309 114.237 463.309 114.15C463.309 113.663 463.419 113.263 463.639 112.95C463.866 112.637 464.169 112.403 464.549 112.25C464.936 112.097 465.372 112.02 465.859 112.02C466.299 112.02 466.666 112.083 466.959 112.21C467.259 112.33 467.499 112.493 467.679 112.7C467.859 112.9 467.986 113.12 468.059 113.36C468.139 113.593 468.179 113.82 468.179 114.04C468.179 114.353 468.122 114.64 468.009 114.9C467.896 115.16 467.742 115.403 467.549 115.63C467.356 115.857 467.126 116.077 466.859 116.29C466.592 116.497 466.309 116.703 466.009 116.91C465.856 117.017 465.709 117.12 465.569 117.22C465.436 117.32 465.319 117.417 465.219 117.51C465.126 117.597 465.052 117.683 464.999 117.77H468.229V119H463.249Z" fill="black"/>
<rect x="427.5" y="132.5" width="58" height="25" rx="4.5" stroke="black"/>
<path d="M443.176 148V147.64C443.176 147.34 443.229 147.067 443.336 146.82C443.442 146.573 443.589 146.347 443.776 146.14C443.962 145.933 444.169 145.737 444.396 145.55C444.622 145.363 444.856 145.183 445.096 145.01C445.369 144.803 445.626 144.6 445.866 144.4C446.112 144.2 446.312 143.987 446.466 143.76C446.619 143.527 446.696 143.27 446.696 142.99C446.696 142.857 446.662 142.723 446.596 142.59C446.529 142.457 446.422 142.347 446.276 142.26C446.136 142.167 445.946 142.12 445.706 142.12C445.459 142.12 445.256 142.163 445.096 142.25C444.936 142.33 444.812 142.447 444.726 142.6C444.646 142.747 444.606 142.93 444.606 143.15V143.51H443.266C443.259 143.477 443.252 143.43 443.246 143.37C443.239 143.31 443.236 143.237 443.236 143.15C443.236 142.663 443.346 142.263 443.566 141.95C443.792 141.637 444.096 141.403 444.476 141.25C444.862 141.097 445.299 141.02 445.786 141.02C446.226 141.02 446.592 141.083 446.886 141.21C447.186 141.33 447.426 141.493 447.606 141.7C447.786 141.9 447.912 142.12 447.986 142.36C448.066 142.593 448.106 142.82 448.106 143.04C448.106 143.353 448.049 143.64 447.936 143.9C447.822 144.16 447.669 144.403 447.476 144.63C447.282 144.857 447.052 145.077 446.786 145.29C446.519 145.497 446.236 145.703 445.936 145.91C445.782 146.017 445.636 146.12 445.496 146.22C445.362 146.32 445.246 146.417 445.146 146.51C445.052 146.597 444.979 146.683 444.926 146.77H448.156V148H443.176ZM449.923 148V146.88H451.563V142.83H449.913V141.99C450.133 141.97 450.386 141.92 450.673 141.84C450.966 141.753 451.259 141.65 451.553 141.53C451.846 141.403 452.109 141.27 452.343 141.13H452.963V146.88H454.493V148H449.923ZM455.98 145.9V144.68H458.51V145.9H455.98ZM460.121 148V147.64C460.121 147.34 460.174 147.067 460.281 146.82C460.387 146.573 460.534 146.347 460.721 146.14C460.907 145.933 461.114 145.737 461.341 145.55C461.567 145.363 461.801 145.183 462.041 145.01C462.314 144.803 462.571 144.6 462.811 144.4C463.057 144.2 463.257 143.987 463.411 143.76C463.564 143.527 463.641 143.27 463.641 142.99C463.641 142.857 463.607 142.723 463.541 142.59C463.474 142.457 463.367 142.347 463.221 142.26C463.081 142.167 462.891 142.12 462.651 142.12C462.404 142.12 462.201 142.163 462.041 142.25C461.881 142.33 461.757 142.447 461.671 142.6C461.591 142.747 461.551 142.93 461.551 143.15V143.51H460.211C460.204 143.477 460.197 143.43 460.191 143.37C460.184 143.31 460.181 143.237 460.181 143.15C460.181 142.663 460.291 142.263 460.511 141.95C460.737 141.637 461.041 141.403 461.421 141.25C461.807 141.097 462.244 141.02 462.731 141.02C463.171 141.02 463.537 141.083 463.831 141.21C464.131 141.33 464.371 141.493 464.551 141.7C464.731 141.9 464.857 142.12 464.931 142.36C465.011 142.593 465.051 142.82 465.051 143.04C465.051 143.353 464.994 143.64 464.881 143.9C464.767 144.16 464.614 144.403 464.421 144.63C464.227 144.857 463.997 145.077 463.731 145.29C463.464 145.497 463.181 145.703 462.881 145.91C462.727 146.017 462.581 146.12 462.441 146.22C462.307 146.32 462.191 146.417 462.091 146.51C461.997 146.597 461.924 146.683 461.871 146.77H465.101V148H460.121ZM469.248 148V146.5H466.158V145.39C466.418 144.977 466.661 144.54 466.888 144.08C467.114 143.62 467.324 143.133 467.518 142.62C467.718 142.107 467.884 141.573 468.018 141.02H469.448C469.374 141.34 469.271 141.677 469.138 142.03C469.011 142.383 468.864 142.733 468.698 143.08C468.531 143.427 468.361 143.753 468.188 144.06C468.021 144.36 467.861 144.627 467.708 144.86C467.554 145.093 467.424 145.27 467.318 145.39H469.248V143.73C469.314 143.603 469.381 143.467 469.448 143.32C469.521 143.167 469.591 143.013 469.658 142.86C469.724 142.7 469.784 142.543 469.838 142.39C469.898 142.237 469.944 142.093 469.978 141.96H470.618V145.39H471.498V146.5H470.618V148H469.248Z" fill="black"/>
<rect x="365.5" y="132.5" width="58" height="25" rx="4.5" stroke="black"/>
<path d="M381.176 148V147.64C381.176 147.34 381.229 147.067 381.336 146.82C381.442 146.573 381.589 146.347 381.776 146.14C381.962 145.933 382.169 145.737 382.396 145.55C382.622 145.363 382.856 145.183 383.096 145.01C383.369 144.803 383.626 144.6 383.866 144.4C384.112 144.2 384.312 143.987 384.466 143.76C384.619 143.527 384.696 143.27 384.696 142.99C384.696 142.857 384.662 142.723 384.596 142.59C384.529 142.457 384.422 142.347 384.276 142.26C384.136 142.167 383.946 142.12 383.706 142.12C383.459 142.12 383.256 142.163 383.096 142.25C382.936 142.33 382.812 142.447 382.726 142.6C382.646 142.747 382.606 142.93 382.606 143.15V143.51H381.266C381.259 143.477 381.252 143.43 381.246 143.37C381.239 143.31 381.236 143.237 381.236 143.15C381.236 142.663 381.346 142.263 381.566 141.95C381.792 141.637 382.096 141.403 382.476 141.25C382.862 141.097 383.299 141.02 383.786 141.02C384.226 141.02 384.592 141.083 384.886 141.21C385.186 141.33 385.426 141.493 385.606 141.7C385.786 141.9 385.912 142.12 385.986 142.36C386.066 142.593 386.106 142.82 386.106 143.04C386.106 143.353 386.049 143.64 385.936 143.9C385.822 144.16 385.669 144.403 385.476 144.63C385.282 144.857 385.052 145.077 384.786 145.29C384.519 145.497 384.236 145.703 383.936 145.91C383.782 146.017 383.636 146.12 383.496 146.22C383.362 146.32 383.246 146.417 383.146 146.51C383.052 146.597 382.979 146.683 382.926 146.77H386.156V148H381.176ZM387.923 148V146.88H389.563V142.83H387.913V141.99C388.133 141.97 388.386 141.92 388.673 141.84C388.966 141.753 389.259 141.65 389.553 141.53C389.846 141.403 390.109 141.27 390.343 141.13H390.963V146.88H392.493V148H387.923ZM393.98 145.9V144.68H396.51V145.9H393.98ZM398.121 148V147.64C398.121 147.34 398.174 147.067 398.281 146.82C398.387 146.573 398.534 146.347 398.721 146.14C398.907 145.933 399.114 145.737 399.341 145.55C399.567 145.363 399.801 145.183 400.041 145.01C400.314 144.803 400.571 144.6 400.811 144.4C401.057 144.2 401.257 143.987 401.411 143.76C401.564 143.527 401.641 143.27 401.641 142.99C401.641 142.857 401.607 142.723 401.541 142.59C401.474 142.457 401.367 142.347 401.221 142.26C401.081 142.167 400.891 142.12 400.651 142.12C400.404 142.12 400.201 142.163 400.041 142.25C399.881 142.33 399.757 142.447 399.671 142.6C399.591 142.747 399.551 142.93 399.551 143.15V143.51H398.211C398.204 143.477 398.197 143.43 398.191 143.37C398.184 143.31 398.181 143.237 398.181 143.15C398.181 142.663 398.291 142.263 398.511 141.95C398.737 141.637 399.041 141.403 399.421 141.25C399.807 141.097 400.244 141.02 400.731 141.02C401.171 141.02 401.537 141.083 401.831 141.21C402.131 141.33 402.371 141.493 402.551 141.7C402.731 141.9 402.857 142.12 402.931 142.36C403.011 142.593 403.051 142.82 403.051 143.04C403.051 143.353 402.994 143.64 402.881 143.9C402.767 144.16 402.614 144.403 402.421 144.63C402.227 144.857 401.997 145.077 401.731 145.29C401.464 145.497 401.181 145.703 400.881 145.91C400.727 146.017 400.581 146.12 400.441 146.22C400.307 146.32 400.191 146.417 400.091 146.51C399.997 146.597 399.924 146.683 399.871 146.77H403.101V148H398.121ZM407.248 148V146.5H404.158V145.39C404.418 144.977 404.661 144.54 404.888 144.08C405.114 143.62 405.324 143.133 405.518 142.62C405.718 142.107 405.884 141.573 406.018 141.02H407.448C407.374 141.34 407.271 141.677 407.138 142.03C407.011 142.383 406.864 142.733 406.698 143.08C406.531 143.427 406.361 143.753 406.188 144.06C406.021 144.36 405.861 144.627 405.708 144.86C405.554 145.093 405.424 145.27 405.318 145.39H407.248V143.73C407.314 143.603 407.381 143.467 407.448 143.32C407.521 143.167 407.591 143.013 407.658 142.86C407.724 142.7 407.784 142.543 407.838 142.39C407.898 142.237 407.944 142.093 407.978 141.96H408.618V145.39H409.498V146.5H408.618V148H407.248Z" fill="black"/>
<rect x="365.5" y="104.5" width="58" height="25" rx="4.5" stroke="black"/>
<path d="M381.719 120V118.88H383.359V114.83H381.709V113.99C381.929 113.97 382.183 113.92 382.469 113.84C382.763 113.753 383.056 113.65 383.349 113.53C383.643 113.403 383.906 113.27 384.139 113.13H384.759V118.88H386.289V120H381.719ZM389.956 120.12C389.376 120.12 388.896 120.033 388.516 119.86C388.143 119.687 387.863 119.45 387.676 119.15C387.496 118.843 387.406 118.5 387.406 118.12C387.406 117.733 387.496 117.407 387.676 117.14C387.863 116.867 388.143 116.65 388.516 116.49C388.196 116.297 387.963 116.073 387.816 115.82C387.676 115.56 387.606 115.27 387.606 114.95C387.606 114.577 387.696 114.247 387.876 113.96C388.056 113.667 388.323 113.437 388.676 113.27C389.03 113.103 389.456 113.02 389.956 113.02C390.45 113.02 390.87 113.103 391.216 113.27C391.57 113.437 391.84 113.667 392.026 113.96C392.213 114.247 392.306 114.577 392.306 114.95C392.306 115.27 392.23 115.56 392.076 115.82C391.93 116.08 391.7 116.303 391.386 116.49C391.766 116.65 392.046 116.867 392.226 117.14C392.406 117.407 392.496 117.733 392.496 118.12C392.496 118.5 392.403 118.843 392.216 119.15C392.036 119.45 391.756 119.687 391.376 119.86C391.003 120.033 390.53 120.12 389.956 120.12ZM389.956 119.05C390.31 119.05 390.583 118.96 390.776 118.78C390.976 118.6 391.076 118.353 391.076 118.04C391.076 117.713 390.976 117.463 390.776 117.29C390.576 117.11 390.303 117.02 389.956 117.02C389.603 117.02 389.326 117.11 389.126 117.29C388.926 117.463 388.826 117.713 388.826 118.04C388.826 118.353 388.923 118.6 389.116 118.78C389.316 118.96 389.596 119.05 389.956 119.05ZM389.956 115.97C390.256 115.97 390.5 115.89 390.686 115.73C390.873 115.57 390.966 115.337 390.966 115.03C390.966 114.723 390.873 114.49 390.686 114.33C390.506 114.163 390.263 114.08 389.956 114.08C389.643 114.08 389.396 114.163 389.216 114.33C389.036 114.49 388.946 114.723 388.946 115.03C388.946 115.337 389.036 115.57 389.216 115.73C389.396 115.89 389.643 115.97 389.956 115.97ZM393.936 117.9V116.68H396.466V117.9H393.936ZM398.077 120V119.64C398.077 119.34 398.13 119.067 398.237 118.82C398.343 118.573 398.49 118.347 398.677 118.14C398.863 117.933 399.07 117.737 399.297 117.55C399.523 117.363 399.757 117.183 399.997 117.01C400.27 116.803 400.527 116.6 400.767 116.4C401.013 116.2 401.213 115.987 401.367 115.76C401.52 115.527 401.597 115.27 401.597 114.99C401.597 114.857 401.563 114.723 401.497 114.59C401.43 114.457 401.323 114.347 401.177 114.26C401.037 114.167 400.847 114.12 400.607 114.12C400.36 114.12 400.157 114.163 399.997 114.25C399.837 114.33 399.713 114.447 399.627 114.6C399.547 114.747 399.507 114.93 399.507 115.15V115.51H398.167C398.16 115.477 398.153 115.43 398.147 115.37C398.14 115.31 398.137 115.237 398.137 115.15C398.137 114.663 398.247 114.263 398.467 113.95C398.693 113.637 398.997 113.403 399.377 113.25C399.763 113.097 400.2 113.02 400.687 113.02C401.127 113.02 401.493 113.083 401.787 113.21C402.087 113.33 402.327 113.493 402.507 113.7C402.687 113.9 402.813 114.12 402.887 114.36C402.967 114.593 403.007 114.82 403.007 115.04C403.007 115.353 402.95 115.64 402.837 115.9C402.723 116.16 402.57 116.403 402.377 116.63C402.183 116.857 401.953 117.077 401.687 117.29C401.42 117.497 401.137 117.703 400.837 117.91C400.683 118.017 400.537 118.12 400.397 118.22C400.263 118.32 400.147 118.417 400.047 118.51C399.953 118.597 399.88 118.683 399.827 118.77H403.057V120H398.077ZM404.824 120V118.88H406.464V114.83H404.814V113.99C405.034 113.97 405.287 113.92 405.574 113.84C405.867 113.753 406.16 113.65 406.454 113.53C406.747 113.403 407.01 113.27 407.244 113.13H407.864V118.88H409.394V120H404.824Z" fill="black"/>
<g filter="url(#filter0_d_344_4510)">
<g opacity="0.8" filter="url(#filter1_i_344_4510)">
<rect x="345" y="298" width="176" height="65" rx="10" fill="#0018B7"/>
</g>
<path d="M392.348 336V323.652H399.08C399.74 323.652 400.328 323.778 400.844 324.03C401.372 324.282 401.786 324.636 402.086 325.092C402.386 325.548 402.536 326.082 402.536 326.694C402.536 327.162 402.446 327.588 402.266 327.972C402.086 328.356 401.84 328.68 401.528 328.944C401.228 329.196 400.886 329.388 400.502 329.52V329.592C400.958 329.688 401.366 329.874 401.726 330.15C402.086 330.414 402.368 330.756 402.572 331.176C402.776 331.584 402.878 332.058 402.878 332.598C402.878 333.366 402.704 334.002 402.356 334.506C402.02 335.01 401.564 335.388 400.988 335.64C400.424 335.88 399.788 336 399.08 336H392.348ZM394.688 334.002H398.774C399.266 334.002 399.668 333.87 399.98 333.606C400.304 333.33 400.466 332.904 400.466 332.328C400.466 331.992 400.4 331.698 400.268 331.446C400.136 331.194 399.932 331.002 399.656 330.87C399.392 330.726 399.05 330.654 398.63 330.654H394.688V334.002ZM394.688 328.692H398.468C398.828 328.692 399.128 328.626 399.368 328.494C399.62 328.362 399.806 328.182 399.926 327.954C400.058 327.726 400.124 327.474 400.124 327.198C400.124 326.67 399.98 326.28 399.692 326.028C399.416 325.776 399.05 325.65 398.594 325.65H394.688V328.692ZM411.267 336.216C409.983 336.216 408.873 335.988 407.937 335.532C407.001 335.064 406.281 334.356 405.777 333.408C405.285 332.46 405.039 331.266 405.039 329.826C405.039 328.374 405.285 327.18 405.777 326.244C406.281 325.296 407.001 324.594 407.937 324.138C408.873 323.67 409.983 323.436 411.267 323.436C412.563 323.436 413.673 323.67 414.597 324.138C415.533 324.594 416.247 325.296 416.739 326.244C417.243 327.18 417.495 328.374 417.495 329.826C417.495 331.266 417.243 332.46 416.739 333.408C416.247 334.356 415.533 335.064 414.597 335.532C413.673 335.988 412.563 336.216 411.267 336.216ZM411.267 334.236C411.891 334.236 412.437 334.146 412.905 333.966C413.385 333.786 413.787 333.522 414.111 333.174C414.435 332.814 414.681 332.376 414.849 331.86C415.017 331.332 415.101 330.726 415.101 330.042V329.646C415.101 328.95 415.017 328.338 414.849 327.81C414.681 327.282 414.435 326.844 414.111 326.496C413.787 326.136 413.385 325.866 412.905 325.686C412.437 325.506 411.891 325.416 411.267 325.416C410.643 325.416 410.091 325.506 409.611 325.686C409.143 325.866 408.747 326.136 408.423 326.496C408.099 326.844 407.853 327.282 407.685 327.81C407.529 328.338 407.451 328.95 407.451 329.646V330.042C407.451 330.726 407.529 331.332 407.685 331.86C407.853 332.376 408.099 332.814 408.423 333.174C408.747 333.522 409.143 333.786 409.611 333.966C410.091 334.146 410.643 334.236 411.267 334.236ZM425.887 336.216C424.603 336.216 423.493 335.988 422.557 335.532C421.621 335.064 420.901 334.356 420.397 333.408C419.905 332.46 419.659 331.266 419.659 329.826C419.659 328.374 419.905 327.18 420.397 326.244C420.901 325.296 421.621 324.594 422.557 324.138C423.493 323.67 424.603 323.436 425.887 323.436C427.183 323.436 428.293 323.67 429.217 324.138C430.153 324.594 430.867 325.296 431.359 326.244C431.863 327.18 432.115 328.374 432.115 329.826C432.115 331.266 431.863 332.46 431.359 333.408C430.867 334.356 430.153 335.064 429.217 335.532C428.293 335.988 427.183 336.216 425.887 336.216ZM425.887 334.236C426.511 334.236 427.057 334.146 427.525 333.966C428.005 333.786 428.407 333.522 428.731 333.174C429.055 332.814 429.301 332.376 429.469 331.86C429.637 331.332 429.721 330.726 429.721 330.042V329.646C429.721 328.95 429.637 328.338 429.469 327.81C429.301 327.282 429.055 326.844 428.731 326.496C428.407 326.136 428.005 325.866 427.525 325.686C427.057 325.506 426.511 325.416 425.887 325.416C425.263 325.416 424.711 325.506 424.231 325.686C423.763 325.866 423.367 326.136 423.043 326.496C422.719 326.844 422.473 327.282 422.305 327.81C422.149 328.338 422.071 328.95 422.071 329.646V330.042C422.071 330.726 422.149 331.332 422.305 331.86C422.473 332.376 422.719 332.814 423.043 333.174C423.367 333.522 423.763 333.786 424.231 333.966C424.711 334.146 425.263 334.236 425.887 334.236ZM434.837 336V323.652H437.177V329.376L442.649 323.652H445.511L440.723 328.656L445.601 336H442.829L439.139 330.294L437.177 332.022V336H434.837ZM451.139 336V323.652H453.371L458.645 330.942C458.705 331.014 458.777 331.116 458.861 331.248C458.945 331.368 459.023 331.488 459.095 331.608C459.167 331.728 459.215 331.824 459.239 331.896H459.329C459.329 331.728 459.329 331.566 459.329 331.41C459.329 331.254 459.329 331.098 459.329 330.942V323.652H461.579V336H459.365L454.073 328.656C453.977 328.512 453.863 328.338 453.731 328.134C453.611 327.918 453.527 327.768 453.479 327.684H453.389C453.389 327.84 453.389 328.002 453.389 328.17C453.389 328.326 453.389 328.488 453.389 328.656V336H451.139ZM469.993 336.216C468.913 336.216 467.983 336.042 467.203 335.694C466.423 335.346 465.823 334.818 465.403 334.11C464.995 333.39 464.791 332.496 464.791 331.428V323.652H467.131V331.356C467.131 332.304 467.377 333.024 467.869 333.516C468.373 333.996 469.081 334.236 469.993 334.236C470.905 334.236 471.613 333.996 472.117 333.516C472.633 333.024 472.891 332.304 472.891 331.356V323.652H475.231V331.428C475.231 332.496 475.021 333.39 474.601 334.11C474.181 334.818 473.581 335.346 472.801 335.694C472.021 336.042 471.085 336.216 469.993 336.216Z" fill="white"/>
</g>
<defs>
<filter id="filter0_d_344_4510" x="341" y="298" width="184" height="73" filterUnits="userSpaceOnUse" color-interpolation-filters="sRGB">
<feFlood flood-opacity="0" result="BackgroundImageFix"/>
<feColorMatrix in="SourceAlpha" type="matrix" values="0 0 0 0 0 0 0 0 0 0 0 0 0 0 0 0 0 0 127 0" result="hardAlpha"/>
<feOffset dy="4"/>
<feGaussianBlur stdDeviation="2"/>
<feComposite in2="hardAlpha" operator="out"/>
<feColorMatrix type="matrix" values="0 0 0 0 0 0 0 0 0 0 0 0 0 0 0 0 0 0 0.25 0"/>
<feBlend mode="normal" in2="BackgroundImageFix" result="effect1_dropShadow_344_4510"/>
<feBlend mode="normal" in="SourceGraphic" in2="effect1_dropShadow_344_4510" result="shape"/>
</filter>
<filter id="filter1_i_344_4510" x="345" y="294" width="180" height="69" filterUnits="userSpaceOnUse" color-interpolation-filters="sRGB">
<feFlood flood-opacity="0" result="BackgroundImageFix"/>
<feBlend mode="normal" in="SourceGraphic" in2="BackgroundImageFix" result="shape"/>
<feColorMatrix in="SourceAlpha" type="matrix" values="0 0 0 0 0 0 0 0 0 0 0 0 0 0 0 0 0 0 127 0" result="hardAlpha"/>
<feMorphology radius="1" operator="erode" in="SourceAlpha" result="effect1_innerShadow_344_4510"/>
<feOffset dx="4" dy="-4"/>
<feGaussianBlur stdDeviation="1.5"/>
<feComposite in2="hardAlpha" operator="arithmetic" k2="-1" k3="1"/>
<feColorMatrix type="matrix" values="0 0 0 0 0 0 0 0 0 0 0 0 0 0 0 0 0 0 0.25 0"/>
<feBlend mode="normal" in2="shape" result="effect1_innerShadow_344_4510"/>
</filter>
</defs>
</svg>
