<svg width="540" height="384" viewBox="0 0 540 384" fill="none" xmlns="http://www.w3.org/2000/svg">
<path d="M0.75 28.75H539.25V376C539.25 380.004 536.004 383.25 532 383.25H7.99999C3.99593 383.25 0.75 380.004 0.75 376V28.75Z" fill="white" stroke="#01020F" stroke-width="1.5"/>
<path d="M8 0.75H532C536.004 0.75 539.25 3.99593 539.25 8V39.25H0.75V8C0.75 3.99594 3.99594 0.75 8 0.75Z" fill="white" stroke="#01020F" stroke-width="1.5"/>
<path d="M205.156 28V11.536H208.732V24.952H217.036V28H205.156ZM224.784 28.288C223.392 28.288 222.224 28.056 221.28 27.592C220.336 27.112 219.624 26.384 219.144 25.408C218.664 24.432 218.424 23.192 218.424 21.688C218.424 20.168 218.664 18.928 219.144 17.968C219.624 16.992 220.328 16.272 221.256 15.808C222.2 15.328 223.352 15.088 224.712 15.088C225.992 15.088 227.072 15.32 227.952 15.784C228.832 16.232 229.496 16.936 229.944 17.896C230.392 18.84 230.616 20.064 230.616 21.568V22.432H221.808C221.84 23.168 221.952 23.792 222.144 24.304C222.352 24.816 222.664 25.2 223.08 25.456C223.512 25.696 224.08 25.816 224.784 25.816C225.168 25.816 225.512 25.768 225.816 25.672C226.136 25.576 226.408 25.432 226.632 25.24C226.856 25.048 227.032 24.808 227.16 24.52C227.288 24.232 227.352 23.904 227.352 23.536H230.616C230.616 24.336 230.472 25.032 230.184 25.624C229.896 26.216 229.496 26.712 228.984 27.112C228.472 27.496 227.856 27.792 227.136 28C226.432 28.192 225.648 28.288 224.784 28.288ZM221.856 20.32H227.184C227.184 19.84 227.12 19.424 226.992 19.072C226.88 18.72 226.72 18.432 226.512 18.208C226.304 17.984 226.048 17.824 225.744 17.728C225.456 17.616 225.128 17.56 224.76 17.56C224.152 17.56 223.64 17.664 223.224 17.872C222.824 18.064 222.512 18.368 222.288 18.784C222.08 19.184 221.936 19.696 221.856 20.32ZM237.527 28.288C236.487 28.288 235.583 28.056 234.815 27.592C234.063 27.112 233.479 26.384 233.063 25.408C232.647 24.432 232.439 23.184 232.439 21.664C232.439 20.144 232.647 18.904 233.063 17.944C233.495 16.968 234.079 16.248 234.815 15.784C235.567 15.32 236.431 15.088 237.407 15.088C237.951 15.088 238.455 15.152 238.919 15.28C239.399 15.392 239.815 15.576 240.167 15.832C240.535 16.088 240.847 16.4 241.103 16.768H241.247V10.648H244.583V28H241.847L241.583 26.296H241.415C240.999 26.968 240.455 27.472 239.783 27.808C239.111 28.128 238.359 28.288 237.527 28.288ZM238.583 25.552C239.207 25.552 239.711 25.408 240.095 25.12C240.495 24.832 240.791 24.416 240.983 23.872C241.175 23.328 241.271 22.68 241.271 21.928V21.496C241.271 20.936 241.215 20.424 241.103 19.96C241.007 19.496 240.847 19.112 240.623 18.808C240.399 18.488 240.119 18.248 239.783 18.088C239.447 17.912 239.047 17.824 238.583 17.824C237.911 17.824 237.375 17.96 236.975 18.232C236.575 18.488 236.287 18.888 236.111 19.432C235.935 19.96 235.847 20.624 235.847 21.424V21.976C235.847 22.776 235.935 23.44 236.111 23.968C236.287 24.496 236.575 24.896 236.975 25.168C237.375 25.424 237.911 25.552 238.583 25.552ZM247.665 13.528V10.648H251.001V13.528H247.665ZM247.665 28V15.376H251.001V28H247.665ZM256.127 32.512C255.567 32.512 255.039 32.392 254.543 32.152C254.047 31.928 253.647 31.592 253.343 31.144C253.039 30.696 252.887 30.16 252.887 29.536C252.887 28.832 253.087 28.272 253.487 27.856C253.903 27.424 254.367 27.104 254.879 26.896C254.511 26.688 254.207 26.416 253.967 26.08C253.743 25.744 253.631 25.352 253.631 24.904C253.631 24.28 253.855 23.776 254.303 23.392C254.767 22.992 255.295 22.736 255.887 22.624C255.295 22.256 254.831 21.792 254.495 21.232C254.175 20.656 254.015 20.016 254.015 19.312C254.015 18.4 254.239 17.632 254.687 17.008C255.151 16.384 255.807 15.912 256.655 15.592C257.519 15.256 258.535 15.088 259.703 15.088C260.167 15.088 260.599 15.112 260.999 15.16C261.415 15.208 261.791 15.288 262.127 15.4C262.719 15.048 263.119 14.664 263.327 14.248C263.551 13.816 263.671 13.472 263.687 13.216H266.783C266.783 13.808 266.671 14.32 266.447 14.752C266.239 15.184 265.935 15.544 265.535 15.832C265.135 16.104 264.655 16.304 264.095 16.432C264.511 16.784 264.831 17.208 265.055 17.704C265.279 18.2 265.391 18.736 265.391 19.312C265.391 20.208 265.175 20.976 264.743 21.616C264.311 22.24 263.695 22.72 262.895 23.056C262.111 23.392 261.167 23.56 260.063 23.56H258.143C257.759 23.56 257.471 23.632 257.279 23.776C257.087 23.904 256.991 24.096 256.991 24.352C256.991 24.56 257.071 24.744 257.231 24.904C257.407 25.048 257.687 25.12 258.071 25.12H263.327C264.383 25.12 265.223 25.448 265.847 26.104C266.487 26.744 266.807 27.568 266.807 28.576C266.807 29.344 266.607 30.024 266.207 30.616C265.807 31.208 265.255 31.672 264.551 32.008C263.847 32.344 263.039 32.512 262.127 32.512H256.127ZM257.519 30.28H261.959C262.247 30.28 262.503 30.224 262.727 30.112C262.951 30.016 263.127 29.872 263.255 29.68C263.383 29.504 263.447 29.296 263.447 29.056C263.447 28.64 263.319 28.328 263.063 28.12C262.807 27.912 262.487 27.808 262.103 27.808H257.519C257.135 27.808 256.815 27.92 256.559 28.144C256.319 28.368 256.199 28.664 256.199 29.032C256.199 29.4 256.319 29.696 256.559 29.92C256.815 30.16 257.135 30.28 257.519 30.28ZM259.703 21.4C260.487 21.4 261.079 21.224 261.479 20.872C261.895 20.504 262.103 19.984 262.103 19.312C262.103 18.64 261.895 18.128 261.479 17.776C261.079 17.408 260.487 17.224 259.703 17.224C258.935 17.224 258.343 17.408 257.927 17.776C257.527 18.128 257.327 18.64 257.327 19.312C257.327 19.744 257.415 20.12 257.591 20.44C257.767 20.76 258.031 21 258.383 21.16C258.735 21.32 259.175 21.4 259.703 21.4ZM274.377 28.288C272.985 28.288 271.817 28.056 270.873 27.592C269.929 27.112 269.217 26.384 268.737 25.408C268.257 24.432 268.017 23.192 268.017 21.688C268.017 20.168 268.257 18.928 268.737 17.968C269.217 16.992 269.921 16.272 270.849 15.808C271.793 15.328 272.945 15.088 274.305 15.088C275.585 15.088 276.665 15.32 277.545 15.784C278.425 16.232 279.089 16.936 279.537 17.896C279.985 18.84 280.209 20.064 280.209 21.568V22.432H271.401C271.433 23.168 271.545 23.792 271.737 24.304C271.945 24.816 272.257 25.2 272.673 25.456C273.105 25.696 273.673 25.816 274.377 25.816C274.761 25.816 275.105 25.768 275.409 25.672C275.729 25.576 276.001 25.432 276.225 25.24C276.449 25.048 276.625 24.808 276.753 24.52C276.881 24.232 276.945 23.904 276.945 23.536H280.209C280.209 24.336 280.065 25.032 279.777 25.624C279.489 26.216 279.089 26.712 278.577 27.112C278.065 27.496 277.449 27.792 276.729 28C276.025 28.192 275.241 28.288 274.377 28.288ZM271.449 20.32H276.777C276.777 19.84 276.713 19.424 276.585 19.072C276.473 18.72 276.313 18.432 276.105 18.208C275.897 17.984 275.641 17.824 275.337 17.728C275.049 17.616 274.721 17.56 274.353 17.56C273.745 17.56 273.233 17.664 272.817 17.872C272.417 18.064 272.105 18.368 271.881 18.784C271.673 19.184 271.529 19.696 271.449 20.32ZM291.136 28.288C290.336 28.288 289.688 28.144 289.192 27.856C288.696 27.568 288.336 27.184 288.112 26.704C287.888 26.208 287.776 25.664 287.776 25.072V17.944H286.216V15.376H287.896L288.52 11.776H291.112V15.376H293.416V17.944H291.112V24.52C291.112 24.904 291.2 25.2 291.376 25.408C291.552 25.6 291.84 25.696 292.24 25.696H293.416V27.904C293.224 27.968 293 28.024 292.744 28.072C292.488 28.136 292.216 28.184 291.928 28.216C291.64 28.264 291.376 28.288 291.136 28.288ZM295.571 13.528V10.648H298.907V13.528H295.571ZM295.571 28V15.376H298.907V28H295.571ZM306.434 28.288C305.394 28.288 304.49 28.056 303.722 27.592C302.97 27.112 302.386 26.384 301.97 25.408C301.554 24.432 301.346 23.184 301.346 21.664C301.346 20.144 301.554 18.904 301.97 17.944C302.402 16.968 302.986 16.248 303.722 15.784C304.474 15.32 305.338 15.088 306.314 15.088C306.858 15.088 307.362 15.152 307.826 15.28C308.306 15.392 308.722 15.576 309.074 15.832C309.442 16.088 309.754 16.4 310.01 16.768H310.154V10.648H313.49V28H310.754L310.49 26.296H310.322C309.906 26.968 309.362 27.472 308.69 27.808C308.018 28.128 307.266 28.288 306.434 28.288ZM307.49 25.552C308.114 25.552 308.618 25.408 309.002 25.12C309.402 24.832 309.698 24.416 309.89 23.872C310.082 23.328 310.178 22.68 310.178 21.928V21.496C310.178 20.936 310.122 20.424 310.01 19.96C309.914 19.496 309.754 19.112 309.53 18.808C309.306 18.488 309.026 18.248 308.69 18.088C308.354 17.912 307.954 17.824 307.49 17.824C306.818 17.824 306.282 17.96 305.882 18.232C305.482 18.488 305.194 18.888 305.018 19.432C304.842 19.96 304.754 20.624 304.754 21.424V21.976C304.754 22.776 304.842 23.44 305.018 23.968C305.194 24.496 305.482 24.896 305.882 25.168C306.282 25.424 306.818 25.552 307.49 25.552ZM322.307 28.288C320.915 28.288 319.747 28.056 318.803 27.592C317.859 27.112 317.147 26.384 316.667 25.408C316.187 24.432 315.947 23.192 315.947 21.688C315.947 20.168 316.187 18.928 316.667 17.968C317.147 16.992 317.851 16.272 318.779 15.808C319.723 15.328 320.875 15.088 322.235 15.088C323.515 15.088 324.595 15.32 325.475 15.784C326.355 16.232 327.019 16.936 327.467 17.896C327.915 18.84 328.139 20.064 328.139 21.568V22.432H319.331C319.363 23.168 319.475 23.792 319.667 24.304C319.875 24.816 320.187 25.2 320.603 25.456C321.035 25.696 321.603 25.816 322.307 25.816C322.691 25.816 323.035 25.768 323.339 25.672C323.659 25.576 323.931 25.432 324.155 25.24C324.379 25.048 324.555 24.808 324.683 24.52C324.811 24.232 324.875 23.904 324.875 23.536H328.139C328.139 24.336 327.995 25.032 327.707 25.624C327.419 26.216 327.019 26.712 326.507 27.112C325.995 27.496 325.379 27.792 324.659 28C323.955 28.192 323.171 28.288 322.307 28.288ZM319.379 20.32H324.707C324.707 19.84 324.643 19.424 324.515 19.072C324.403 18.72 324.243 18.432 324.035 18.208C323.827 17.984 323.571 17.824 323.267 17.728C322.979 17.616 322.651 17.56 322.283 17.56C321.675 17.56 321.163 17.664 320.747 17.872C320.347 18.064 320.035 18.368 319.811 18.784C319.603 19.184 319.459 19.696 319.379 20.32ZM330.587 28V15.376H333.347L333.611 17.344H333.779C333.939 16.928 334.147 16.552 334.403 16.216C334.659 15.864 334.979 15.584 335.363 15.376C335.747 15.168 336.195 15.064 336.707 15.064C336.979 15.064 337.227 15.096 337.451 15.16C337.675 15.208 337.843 15.256 337.955 15.304V18.328H336.923C336.427 18.328 335.987 18.4 335.603 18.544C335.235 18.672 334.923 18.88 334.667 19.168C334.411 19.456 334.219 19.808 334.091 20.224C333.979 20.64 333.923 21.128 333.923 21.688V28H330.587Z" fill="#373F41"/>
<path d="M169.681 192V179.652H172.363V185.268L177.619 179.652H180.931L176.215 184.674L181.021 192H177.817L174.361 186.528L172.363 188.328V192H169.681ZM182.508 192V178.986H185.01V192H182.508ZM187.307 181.146V178.986H189.809V181.146H187.307ZM187.307 192V182.532H189.809V192H187.307ZM192.106 192V178.968H194.608V186.474L197.92 182.532H200.854L197.614 186.24L201.016 192H198.154L195.976 188.004L194.608 189.336V192H192.106ZM205.395 195.204V182.532H207.447L207.663 183.81H207.789C208.101 183.294 208.509 182.916 209.013 182.676C209.517 182.436 210.075 182.316 210.687 182.316C211.479 182.316 212.157 182.49 212.721 182.838C213.297 183.186 213.735 183.726 214.035 184.458C214.347 185.19 214.503 186.132 214.503 187.284C214.503 188.4 214.347 189.324 214.035 190.056C213.723 190.788 213.285 191.334 212.721 191.694C212.169 192.042 211.521 192.216 210.777 192.216C210.369 192.216 209.991 192.168 209.643 192.072C209.295 191.988 208.983 191.85 208.707 191.658C208.431 191.466 208.197 191.232 208.005 190.956H207.897V195.204H205.395ZM209.913 190.164C210.417 190.164 210.813 190.068 211.101 189.876C211.401 189.672 211.617 189.372 211.749 188.976C211.881 188.568 211.947 188.07 211.947 187.482V187.068C211.947 186.468 211.881 185.97 211.749 185.574C211.617 185.166 211.401 184.866 211.101 184.674C210.813 184.47 210.417 184.368 209.913 184.368C209.445 184.368 209.061 184.476 208.761 184.692C208.461 184.908 208.239 185.22 208.095 185.628C207.951 186.036 207.879 186.528 207.879 187.104V187.41C207.879 187.83 207.921 188.214 208.005 188.562C208.089 188.898 208.209 189.186 208.365 189.426C208.533 189.666 208.743 189.852 208.995 189.984C209.247 190.104 209.553 190.164 209.913 190.164ZM218.848 192.216C218.536 192.216 218.2 192.18 217.84 192.108C217.492 192.036 217.162 191.91 216.85 191.73C216.538 191.538 216.28 191.268 216.076 190.92C215.884 190.56 215.788 190.104 215.788 189.552C215.788 188.892 215.932 188.346 216.22 187.914C216.508 187.482 216.916 187.146 217.444 186.906C217.984 186.654 218.626 186.48 219.37 186.384C220.114 186.288 220.936 186.24 221.836 186.24V185.538C221.836 185.262 221.788 185.022 221.692 184.818C221.608 184.614 221.452 184.452 221.224 184.332C221.008 184.212 220.702 184.152 220.306 184.152C219.91 184.152 219.586 184.2 219.334 184.296C219.094 184.392 218.92 184.518 218.812 184.674C218.716 184.818 218.668 184.98 218.668 185.16V185.376H216.238C216.226 185.316 216.22 185.262 216.22 185.214C216.22 185.154 216.22 185.082 216.22 184.998C216.22 184.446 216.388 183.972 216.724 183.576C217.06 183.168 217.534 182.856 218.146 182.64C218.758 182.424 219.472 182.316 220.288 182.316C221.164 182.316 221.896 182.43 222.484 182.658C223.084 182.886 223.54 183.222 223.852 183.666C224.176 184.11 224.338 184.668 224.338 185.34V189.642C224.338 189.858 224.398 190.02 224.518 190.128C224.65 190.224 224.794 190.272 224.95 190.272H225.544V191.91C225.424 191.97 225.238 192.03 224.986 192.09C224.734 192.162 224.428 192.198 224.068 192.198C223.72 192.198 223.408 192.144 223.132 192.036C222.868 191.94 222.646 191.802 222.466 191.622C222.286 191.43 222.16 191.202 222.088 190.938H221.962C221.758 191.19 221.506 191.412 221.206 191.604C220.918 191.796 220.576 191.946 220.18 192.054C219.796 192.162 219.352 192.216 218.848 192.216ZM219.694 190.326C220.03 190.326 220.33 190.278 220.594 190.182C220.858 190.074 221.08 189.936 221.26 189.768C221.44 189.588 221.578 189.372 221.674 189.12C221.782 188.868 221.836 188.598 221.836 188.31V187.788C221.164 187.788 220.564 187.836 220.036 187.932C219.508 188.016 219.088 188.166 218.776 188.382C218.476 188.598 218.326 188.898 218.326 189.282C218.326 189.498 218.38 189.684 218.488 189.84C218.596 189.996 218.752 190.116 218.956 190.2C219.16 190.284 219.406 190.326 219.694 190.326ZM220.288 181.596C219.76 181.596 219.322 181.428 218.974 181.092C218.626 180.744 218.452 180.306 218.452 179.778C218.452 179.238 218.626 178.8 218.974 178.464C219.322 178.116 219.76 177.942 220.288 177.942C220.828 177.942 221.266 178.116 221.602 178.464C221.95 178.8 222.124 179.238 222.124 179.778C222.124 180.306 221.95 180.744 221.602 181.092C221.266 181.428 220.828 181.596 220.288 181.596ZM220.288 180.588C220.528 180.588 220.72 180.51 220.864 180.354C221.02 180.198 221.098 180.006 221.098 179.778C221.098 179.538 221.02 179.34 220.864 179.184C220.72 179.028 220.528 178.95 220.288 178.95C220.06 178.95 219.868 179.028 219.712 179.184C219.568 179.34 219.496 179.538 219.496 179.778C219.496 180.018 219.568 180.216 219.712 180.372C219.868 180.516 220.06 180.588 220.288 180.588ZM234.623 192.216C233.579 192.216 232.703 192.042 231.995 191.694C231.287 191.334 230.753 190.788 230.393 190.056C230.033 189.324 229.853 188.394 229.853 187.266C229.853 186.126 230.033 185.196 230.393 184.476C230.753 183.744 231.281 183.204 231.977 182.856C232.685 182.496 233.549 182.316 234.569 182.316C235.529 182.316 236.339 182.49 236.999 182.838C237.659 183.174 238.157 183.702 238.493 184.422C238.829 185.13 238.997 186.048 238.997 187.176V187.824H232.391C232.415 188.376 232.499 188.844 232.643 189.228C232.799 189.612 233.033 189.9 233.345 190.092C233.669 190.272 234.095 190.362 234.623 190.362C234.911 190.362 235.169 190.326 235.397 190.254C235.637 190.182 235.841 190.074 236.009 189.93C236.177 189.786 236.309 189.606 236.405 189.39C236.501 189.174 236.549 188.928 236.549 188.652H238.997C238.997 189.252 238.889 189.774 238.673 190.218C238.457 190.662 238.157 191.034 237.773 191.334C237.389 191.622 236.927 191.844 236.387 192C235.859 192.144 235.271 192.216 234.623 192.216ZM232.427 186.24H236.423C236.423 185.88 236.375 185.568 236.279 185.304C236.195 185.04 236.075 184.824 235.919 184.656C235.763 184.488 235.571 184.368 235.343 184.296C235.127 184.212 234.881 184.17 234.605 184.17C234.149 184.17 233.765 184.248 233.453 184.404C233.153 184.548 232.919 184.776 232.751 185.088C232.595 185.388 232.487 185.772 232.427 186.24ZM240.833 192V182.532H242.903L243.101 183.828H243.227C243.443 183.516 243.701 183.246 244.001 183.018C244.313 182.79 244.661 182.616 245.045 182.496C245.429 182.376 245.849 182.316 246.305 182.316C246.929 182.316 247.475 182.43 247.943 182.658C248.411 182.886 248.771 183.246 249.023 183.738C249.287 184.23 249.419 184.872 249.419 185.664V192H246.917V186.06C246.917 185.76 246.881 185.508 246.809 185.304C246.737 185.088 246.629 184.914 246.485 184.782C246.353 184.638 246.185 184.536 245.981 184.476C245.777 184.416 245.549 184.386 245.297 184.386C244.925 184.386 244.589 184.476 244.289 184.656C243.989 184.836 243.755 185.082 243.587 185.394C243.419 185.706 243.335 186.066 243.335 186.474V192H240.833ZM255.194 192V182.532H257.264L257.462 184.008H257.588C257.708 183.696 257.864 183.414 258.056 183.162C258.248 182.898 258.488 182.688 258.776 182.532C259.064 182.376 259.4 182.298 259.784 182.298C259.988 182.298 260.174 182.322 260.342 182.37C260.51 182.406 260.636 182.442 260.72 182.478V184.746H259.946C259.574 184.746 259.244 184.8 258.956 184.908C258.68 185.004 258.446 185.16 258.254 185.376C258.062 185.592 257.918 185.856 257.822 186.168C257.738 186.48 257.696 186.846 257.696 187.266V192H255.194ZM265.092 192.216C264.132 192.216 263.37 191.952 262.806 191.424C262.242 190.896 261.96 190.044 261.96 188.868V182.532H264.462V188.454C264.462 188.766 264.498 189.03 264.57 189.246C264.642 189.45 264.744 189.618 264.876 189.75C265.02 189.882 265.194 189.978 265.398 190.038C265.602 190.098 265.83 190.128 266.082 190.128C266.454 190.128 266.79 190.038 267.09 189.858C267.39 189.678 267.624 189.432 267.792 189.12C267.96 188.796 268.044 188.436 268.044 188.04V182.532H270.546V192H268.494L268.314 190.704H268.188C267.96 191.004 267.69 191.268 267.378 191.496C267.078 191.724 266.736 191.898 266.352 192.018C265.968 192.15 265.548 192.216 265.092 192.216ZM272.842 192V182.532H274.912L275.11 183.828H275.236C275.44 183.516 275.68 183.246 275.956 183.018C276.244 182.79 276.562 182.616 276.91 182.496C277.27 182.376 277.654 182.316 278.062 182.316C278.662 182.316 279.178 182.436 279.61 182.676C280.054 182.916 280.396 183.3 280.636 183.828H280.762C280.966 183.516 281.212 183.246 281.5 183.018C281.788 182.79 282.118 182.616 282.49 182.496C282.862 182.376 283.258 182.316 283.678 182.316C284.278 182.316 284.794 182.424 285.226 182.64C285.67 182.856 286.018 183.21 286.27 183.702C286.522 184.182 286.648 184.806 286.648 185.574V192H284.146V186.024C284.146 185.724 284.11 185.472 284.038 185.268C283.978 185.052 283.888 184.884 283.768 184.764C283.648 184.632 283.498 184.536 283.318 184.476C283.138 184.416 282.946 184.386 282.742 184.386C282.406 184.386 282.106 184.476 281.842 184.656C281.578 184.836 281.368 185.082 281.212 185.394C281.068 185.706 280.996 186.066 280.996 186.474V192H278.494V186.024C278.494 185.724 278.458 185.472 278.386 185.268C278.326 185.052 278.236 184.884 278.116 184.764C277.996 184.632 277.846 184.536 277.666 184.476C277.498 184.416 277.306 184.386 277.09 184.386C276.766 184.386 276.466 184.476 276.19 184.656C275.926 184.836 275.716 185.082 275.56 185.394C275.416 185.706 275.344 186.066 275.344 186.474V192H272.842ZM292.708 192.216C292.048 192.216 291.454 192.144 290.926 192C290.398 191.856 289.948 191.658 289.576 191.406C289.204 191.142 288.916 190.83 288.712 190.47C288.52 190.11 288.424 189.702 288.424 189.246C288.424 189.198 288.424 189.15 288.424 189.102C288.424 189.054 288.43 189.018 288.442 188.994H290.854C290.854 189.018 290.854 189.042 290.854 189.066C290.854 189.09 290.854 189.114 290.854 189.138C290.866 189.438 290.962 189.684 291.142 189.876C291.322 190.056 291.556 190.188 291.844 190.272C292.144 190.356 292.456 190.398 292.78 190.398C293.068 190.398 293.344 190.374 293.608 190.326C293.884 190.266 294.112 190.164 294.292 190.02C294.484 189.876 294.58 189.69 294.58 189.462C294.58 189.174 294.46 188.952 294.22 188.796C293.992 188.64 293.686 188.514 293.302 188.418C292.93 188.322 292.522 188.214 292.078 188.094C291.67 187.998 291.262 187.89 290.854 187.77C290.446 187.638 290.074 187.47 289.738 187.266C289.414 187.062 289.15 186.798 288.946 186.474C288.742 186.138 288.64 185.718 288.64 185.214C288.64 184.722 288.748 184.296 288.964 183.936C289.18 183.564 289.474 183.258 289.846 183.018C290.23 182.778 290.674 182.604 291.178 182.496C291.694 182.376 292.246 182.316 292.834 182.316C293.386 182.316 293.902 182.376 294.382 182.496C294.862 182.604 295.282 182.772 295.642 183C296.002 183.216 296.284 183.492 296.488 183.828C296.692 184.152 296.794 184.518 296.794 184.926C296.794 185.01 296.794 185.088 296.794 185.16C296.794 185.232 296.788 185.28 296.776 185.304H294.382V185.16C294.382 184.944 294.316 184.764 294.184 184.62C294.052 184.464 293.86 184.344 293.608 184.26C293.368 184.176 293.074 184.134 292.726 184.134C292.486 184.134 292.264 184.152 292.06 184.188C291.868 184.224 291.7 184.278 291.556 184.35C291.412 184.422 291.298 184.512 291.214 184.62C291.142 184.716 291.106 184.836 291.106 184.98C291.106 185.184 291.19 185.352 291.358 185.484C291.538 185.604 291.772 185.706 292.06 185.79C292.348 185.874 292.666 185.964 293.014 186.06C293.446 186.18 293.896 186.3 294.364 186.42C294.844 186.528 295.288 186.678 295.696 186.87C296.104 187.062 296.434 187.338 296.686 187.698C296.938 188.046 297.064 188.52 297.064 189.12C297.064 189.696 296.95 190.182 296.722 190.578C296.506 190.974 296.2 191.292 295.804 191.532C295.408 191.772 294.946 191.946 294.418 192.054C293.89 192.162 293.32 192.216 292.708 192.216ZM301.702 192.216C301.102 192.216 300.616 192.108 300.244 191.892C299.872 191.676 299.602 191.388 299.434 191.028C299.266 190.656 299.182 190.248 299.182 189.804V184.458H298.012V182.532H299.272L299.74 179.832H301.684V182.532H303.412V184.458H301.684V189.39C301.684 189.678 301.75 189.9 301.882 190.056C302.014 190.2 302.23 190.272 302.53 190.272H303.412V191.928C303.268 191.976 303.1 192.018 302.908 192.054C302.716 192.102 302.512 192.138 302.296 192.162C302.08 192.198 301.882 192.216 301.702 192.216ZM309.384 192.216C308.352 192.216 307.476 192.042 306.756 191.694C306.036 191.334 305.49 190.788 305.118 190.056C304.746 189.312 304.56 188.382 304.56 187.266C304.56 186.126 304.746 185.196 305.118 184.476C305.49 183.744 306.036 183.204 306.756 182.856C307.476 182.496 308.352 182.316 309.384 182.316C310.44 182.316 311.322 182.496 312.03 182.856C312.75 183.204 313.296 183.744 313.668 184.476C314.04 185.196 314.226 186.126 314.226 187.266C314.226 188.382 314.04 189.312 313.668 190.056C313.296 190.788 312.75 191.334 312.03 191.694C311.322 192.042 310.44 192.216 309.384 192.216ZM309.384 190.272C309.936 190.272 310.374 190.17 310.698 189.966C311.034 189.762 311.28 189.45 311.436 189.03C311.592 188.61 311.67 188.094 311.67 187.482V187.05C311.67 186.438 311.592 185.922 311.436 185.502C311.28 185.082 311.034 184.77 310.698 184.566C310.374 184.35 309.936 184.242 309.384 184.242C308.844 184.242 308.406 184.35 308.07 184.566C307.746 184.77 307.506 185.082 307.35 185.502C307.194 185.922 307.116 186.438 307.116 187.05V187.482C307.116 188.094 307.194 188.61 307.35 189.03C307.506 189.45 307.746 189.762 308.07 189.966C308.406 190.17 308.844 190.272 309.384 190.272ZM304.596 192.828L312.678 181.668H314.19L306.108 192.828H304.596ZM316.067 192V182.532H318.137L318.335 184.008H318.461C318.581 183.696 318.737 183.414 318.929 183.162C319.121 182.898 319.361 182.688 319.649 182.532C319.937 182.376 320.273 182.298 320.657 182.298C320.861 182.298 321.047 182.322 321.215 182.37C321.383 182.406 321.509 182.442 321.593 182.478V184.746H320.819C320.447 184.746 320.117 184.8 319.829 184.908C319.553 185.004 319.319 185.16 319.127 185.376C318.935 185.592 318.791 185.856 318.695 186.168C318.611 186.48 318.569 186.846 318.569 187.266V192H316.067ZM322.905 192V182.532H324.975L325.173 184.008H325.299C325.419 183.696 325.575 183.414 325.767 183.162C325.959 182.898 326.199 182.688 326.487 182.532C326.775 182.376 327.111 182.298 327.495 182.298C327.699 182.298 327.885 182.322 328.053 182.37C328.221 182.406 328.347 182.442 328.431 182.478V184.746H327.657C327.285 184.746 326.955 184.8 326.667 184.908C326.391 185.004 326.157 185.16 325.965 185.376C325.773 185.592 325.629 185.856 325.533 186.168C325.449 186.48 325.407 186.846 325.407 187.266V192H322.905ZM333.869 192.216C332.825 192.216 331.949 192.042 331.241 191.694C330.533 191.334 329.999 190.788 329.639 190.056C329.279 189.324 329.099 188.394 329.099 187.266C329.099 186.126 329.279 185.196 329.639 184.476C329.999 183.744 330.527 183.204 331.223 182.856C331.931 182.496 332.795 182.316 333.815 182.316C334.775 182.316 335.585 182.49 336.245 182.838C336.905 183.174 337.403 183.702 337.739 184.422C338.075 185.13 338.243 186.048 338.243 187.176V187.824H331.637C331.661 188.376 331.745 188.844 331.889 189.228C332.045 189.612 332.279 189.9 332.591 190.092C332.915 190.272 333.341 190.362 333.869 190.362C334.157 190.362 334.415 190.326 334.643 190.254C334.883 190.182 335.087 190.074 335.255 189.93C335.423 189.786 335.555 189.606 335.651 189.39C335.747 189.174 335.795 188.928 335.795 188.652H338.243C338.243 189.252 338.135 189.774 337.919 190.218C337.703 190.662 337.403 191.034 337.019 191.334C336.635 191.622 336.173 191.844 335.633 192C335.105 192.144 334.517 192.216 333.869 192.216ZM331.673 186.24H335.669C335.669 185.88 335.621 185.568 335.525 185.304C335.441 185.04 335.321 184.824 335.165 184.656C335.009 184.488 334.817 184.368 334.589 184.296C334.373 184.212 334.127 184.17 333.851 184.17C333.395 184.17 333.011 184.248 332.699 184.404C332.399 184.548 332.165 184.776 331.997 185.088C331.841 185.388 331.733 185.772 331.673 186.24ZM340.079 192V178.986H342.581V192H340.079ZM348.712 192.216C348.052 192.216 347.458 192.144 346.93 192C346.402 191.856 345.952 191.658 345.58 191.406C345.208 191.142 344.92 190.83 344.716 190.47C344.524 190.11 344.428 189.702 344.428 189.246C344.428 189.198 344.428 189.15 344.428 189.102C344.428 189.054 344.434 189.018 344.446 188.994H346.858C346.858 189.018 346.858 189.042 346.858 189.066C346.858 189.09 346.858 189.114 346.858 189.138C346.87 189.438 346.966 189.684 347.146 189.876C347.326 190.056 347.56 190.188 347.848 190.272C348.148 190.356 348.46 190.398 348.784 190.398C349.072 190.398 349.348 190.374 349.612 190.326C349.888 190.266 350.116 190.164 350.296 190.02C350.488 189.876 350.584 189.69 350.584 189.462C350.584 189.174 350.464 188.952 350.224 188.796C349.996 188.64 349.69 188.514 349.306 188.418C348.934 188.322 348.526 188.214 348.082 188.094C347.674 187.998 347.266 187.89 346.858 187.77C346.45 187.638 346.078 187.47 345.742 187.266C345.418 187.062 345.154 186.798 344.95 186.474C344.746 186.138 344.644 185.718 344.644 185.214C344.644 184.722 344.752 184.296 344.968 183.936C345.184 183.564 345.478 183.258 345.85 183.018C346.234 182.778 346.678 182.604 347.182 182.496C347.698 182.376 348.25 182.316 348.838 182.316C349.39 182.316 349.906 182.376 350.386 182.496C350.866 182.604 351.286 182.772 351.646 183C352.006 183.216 352.288 183.492 352.492 183.828C352.696 184.152 352.798 184.518 352.798 184.926C352.798 185.01 352.798 185.088 352.798 185.16C352.798 185.232 352.792 185.28 352.78 185.304H350.386V185.16C350.386 184.944 350.32 184.764 350.188 184.62C350.056 184.464 349.864 184.344 349.612 184.26C349.372 184.176 349.078 184.134 348.73 184.134C348.49 184.134 348.268 184.152 348.064 184.188C347.872 184.224 347.704 184.278 347.56 184.35C347.416 184.422 347.302 184.512 347.218 184.62C347.146 184.716 347.11 184.836 347.11 184.98C347.11 185.184 347.194 185.352 347.362 185.484C347.542 185.604 347.776 185.706 348.064 185.79C348.352 185.874 348.67 185.964 349.018 186.06C349.45 186.18 349.9 186.3 350.368 186.42C350.848 186.528 351.292 186.678 351.7 186.87C352.108 187.062 352.438 187.338 352.69 187.698C352.942 188.046 353.068 188.52 353.068 189.12C353.068 189.696 352.954 190.182 352.726 190.578C352.51 190.974 352.204 191.292 351.808 191.532C351.412 191.772 350.95 191.946 350.422 192.054C349.894 192.162 349.324 192.216 348.712 192.216ZM359.182 192.216C358.138 192.216 357.262 192.042 356.554 191.694C355.846 191.334 355.312 190.788 354.952 190.056C354.592 189.324 354.412 188.394 354.412 187.266C354.412 186.126 354.592 185.196 354.952 184.476C355.312 183.744 355.84 183.204 356.536 182.856C357.244 182.496 358.108 182.316 359.128 182.316C360.088 182.316 360.898 182.49 361.558 182.838C362.218 183.174 362.716 183.702 363.052 184.422C363.388 185.13 363.556 186.048 363.556 187.176V187.824H356.95C356.974 188.376 357.058 188.844 357.202 189.228C357.358 189.612 357.592 189.9 357.904 190.092C358.228 190.272 358.654 190.362 359.182 190.362C359.47 190.362 359.728 190.326 359.956 190.254C360.196 190.182 360.4 190.074 360.568 189.93C360.736 189.786 360.868 189.606 360.964 189.39C361.06 189.174 361.108 188.928 361.108 188.652H363.556C363.556 189.252 363.448 189.774 363.232 190.218C363.016 190.662 362.716 191.034 362.332 191.334C361.948 191.622 361.486 191.844 360.946 192C360.418 192.144 359.83 192.216 359.182 192.216ZM356.986 186.24H360.982C360.982 185.88 360.934 185.568 360.838 185.304C360.754 185.04 360.634 184.824 360.478 184.656C360.322 184.488 360.13 184.368 359.902 184.296C359.686 184.212 359.44 184.17 359.164 184.17C358.708 184.17 358.324 184.248 358.012 184.404C357.712 184.548 357.478 184.776 357.31 185.088C357.154 185.388 357.046 185.772 356.986 186.24ZM369.698 188.382L369.086 179.652H371.894L371.264 188.382H369.698ZM369.212 192V189.48H371.768V192H369.212Z" fill="black"/>
</svg>
