<?xml version="1.0" encoding="utf-8"?>
<!-- Generator: Adobe Illustrator 26.0.1, SVG Export Plug-In . SVG Version: 6.00 Build 0)  -->
<svg version="1.1" id="Layer_1" xmlns="http://www.w3.org/2000/svg" xmlns:xlink="http://www.w3.org/1999/xlink" x="0px" y="0px"
	 viewBox="0 0 100 658.2" style="enable-background:new 0 0 100 658.2;" xml:space="preserve">
<style type="text/css">
	.st0{font-family:'MyriadPro-Bold';}
	.st1{font-size:45px;}
	.st2{fill:none;stroke:#000000;stroke-miterlimit:10;}
</style>
<text transform="matrix(0 -1.13 1 0 67.9904 648.8172)" class="st0 st1">OFTE STILLEDE SPØ</text>
<text transform="matrix(0 -1.13 1 0 67.9904 648.8172)" class="st2 st0 st1">OFTE STILLEDE SPØ</text>
<text transform="matrix(0 -1.13 1 0 67.9899 203.428)" class="st0 st1">R</text>
<text transform="matrix(0 -1.13 1 0 67.9904 203.4271)" class="st2 st0 st1">R</text>
<text transform="matrix(0 -1.13 1 0 68.4406 174.1883)" class="st0 st1">GS</text>
<text transform="matrix(0 -1.13 1 0 68.4406 174.1883)" class="st2 st0 st1">GS</text>
<text transform="matrix(0 -1.13 1 0 67.5383 111.2142)" class="st0 st1">M</text>
<text transform="matrix(0 -1.13 1 0 67.5378 111.0788)" class="st2 st0 st1">M</text>
<text transform="matrix(0 -1.13 1 0 67.989 66.5965)" class="st0 st1">ÅL</text>
<text transform="matrix(0 -1.13 1 0 67.989 66.5965)" class="st2 st0 st1">ÅL</text>
</svg>
