<svg id="Layer_1" data-name="Layer 1" xmlns="http://www.w3.org/2000/svg" viewBox="0 0 280 37.77"><defs><style>.cls-1{fill:#fff;stroke:#000;stroke-miterlimit:10;stroke-width:0.5px;}</style></defs><path class="cls-1" d="M3.17,34.9,10,0,21.14,25.23,32.69,0l6.13,34.9h-5L30.67,15.31,21.06,36.39l-9.34-21.1L8.23,34.9Z"/><path class="cls-1" d="M47.15,2.44V22q0,4.19,1.37,6.12a6.71,6.71,0,0,0,5.74,2.8A6.71,6.71,0,0,0,60,28.11q1.36-1.87,1.37-6.12V2.44h4.89v20.9a11.71,11.71,0,0,1-3.19,8.45A12.36,12.36,0,0,1,45.61,32c0-.06-.11-.11-.16-.16a11.72,11.72,0,0,1-3.2-8.45V2.44Z"/><path class="cls-1" d="M89.83,7.27l-4,2.36a6.81,6.81,0,0,0-2.12-2.52,5.62,5.62,0,0,0-6.1.48,3.56,3.56,0,0,0-1.34,2.86c0,1.58,1.17,2.86,3.53,3.83l3.23,1.32a13.92,13.92,0,0,1,5.79,3.9,8.84,8.84,0,0,1,1.83,5.65,9.94,9.94,0,0,1-3,7.4,10.27,10.27,0,0,1-7.46,2.94,10,10,0,0,1-7-2.5,11.54,11.54,0,0,1-3.39-7l5-1.1A8.49,8.49,0,0,0,76,28.8a5.59,5.59,0,0,0,7.86.88,3.65,3.65,0,0,0,.36-.31,5.28,5.28,0,0,0,1.51-3.89,5.34,5.34,0,0,0-.26-1.73,4.3,4.3,0,0,0-.82-1.46,6.6,6.6,0,0,0-1.44-1.24,15,15,0,0,0-2.1-1.1L78,18.65q-6.67-2.82-6.67-8.24a7.83,7.83,0,0,1,2.8-6.12,10.09,10.09,0,0,1,7-2.48Q86.68,1.81,89.83,7.27Z"/><path class="cls-1" d="M100.62,2.44V34.9h-4.9V2.44Z"/><path class="cls-1" d="M112.46,15.39,125.1,2.44h6.53L117,17.14,131.72,34.9h-6.56L113.47,20.46l-1,1V34.9h-4.9V2.44h4.9Z"/><path class="cls-1" d="M141,2.44V30.3h9.54v4.6H136.09V2.44Z"/><path class="cls-1" d="M152.23,18.52a15.94,15.94,0,0,1,5-11.77,16.54,16.54,0,0,1,12-4.92,16.19,16.19,0,0,1,11.89,5,16.23,16.23,0,0,1,5,11.92,16,16,0,0,1-5,11.88,17.16,17.16,0,0,1-23.42.55A16,16,0,0,1,152.23,18.52Zm5,.06a11.7,11.7,0,0,0,3.61,8.85,12,12,0,0,0,20.44-8.76,11.89,11.89,0,0,0-3.47-8.7,12.1,12.1,0,0,0-17.09,0,11.64,11.64,0,0,0-3.49,8.62Z"/><path class="cls-1" d="M206,7H194.64v7.8h10.91v4.61H194.64V34.9h-4.9V2.44H206Z"/><path class="cls-1" d="M221.45,7V34.9h-4.9V7h-7.46V2.44h19.8V7Z"/><path class="cls-1" d="M251.18,7h-13v7.8H250.8v4.61H238.16V30.3h13v4.6H233.26V2.44h17.92Z"/><path class="cls-1" d="M266.57,7V34.9h-4.9V7H254.2V2.44H274V7Z"/></svg>