<svg xmlns="http://www.w3.org/2000/svg" width="457" height="105" viewBox="0 0 457 105">
  <g>
    <path d="M5.241,80.123,16.487,22.682l18.34,41.524,19-41.524,10.1,57.441h-8.27L50.5,47.873,34.688,82.579,19.325,47.839,13.581,80.123Z"/>
    <path d="M77.635,26.7v32.18q0,6.887,2.249,10.069a11.014,11.014,0,0,0,9.447,4.6,11.047,11.047,0,0,0,9.481-4.6q2.25-3.079,2.249-10.069V26.7h8.063V61.092A19.247,19.247,0,0,1,103.864,75a20.344,20.344,0,0,1-29.031,0,19.243,19.243,0,0,1-5.26-13.91V26.7Z"/>
    <path d="M147.882,34.655l-6.539,3.876a11.253,11.253,0,0,0-3.495-4.153,8.158,8.158,0,0,0-4.464-1.107,8.247,8.247,0,0,0-5.571,1.9A5.9,5.9,0,0,0,125.6,39.88q0,3.91,5.813,6.3l5.328,2.18q6.505,2.63,9.516,6.419a14.465,14.465,0,0,1,3.011,9.29,16.325,16.325,0,0,1-4.914,12.18,16.866,16.866,0,0,1-12.284,4.845,16.428,16.428,0,0,1-11.488-4.118q-4.464-4.118-5.571-11.592l8.166-1.8q.553,4.707,1.938,6.5a9.208,9.208,0,0,0,13.53.934,8.735,8.735,0,0,0,2.491-6.4,9,9,0,0,0-.432-2.855,7.253,7.253,0,0,0-1.35-2.387,10.783,10.783,0,0,0-2.37-2.042,22.91,22.91,0,0,0-3.461-1.817l-5.155-2.145Q117.4,48.739,117.4,39.811A12.868,12.868,0,0,1,122,29.742a16.626,16.626,0,0,1,11.453-4.083Q142.692,25.659,147.882,34.655Z"/>
    <path d="M165.635,26.7V80.123h-8.062V26.7Z"/>
    <path d="M185.118,48.012l20.8-21.315h10.761L192.522,50.884l24.291,29.239H206.018L186.779,56.351l-1.661,1.661V80.123h-8.063V26.7h8.063Z"/>
    <path d="M232.073,26.7V72.545h15.71v7.578H224.011V26.7Z"/>
    <path d="M250.585,53.167a26.168,26.168,0,0,1,8.27-19.377,27.222,27.222,0,0,1,19.793-8.1,26.709,26.709,0,0,1,19.584,8.166,26.7,26.7,0,0,1,8.2,19.62,26.271,26.271,0,0,1-8.236,19.55,28.231,28.231,0,0,1-38.548.9Q250.586,66.006,250.585,53.167Zm8.132.1a19.311,19.311,0,0,0,5.951,14.568,19.714,19.714,0,0,0,27.855-.1,19.674,19.674,0,0,0,5.78-14.326,19.583,19.583,0,0,0-5.71-14.325,19.925,19.925,0,0,0-28.132,0A19.273,19.273,0,0,0,258.717,53.271Z"/>
    <path d="M339,34.274H320.383V47.112h17.959V54.69H320.383V80.123H312.32V26.7H339Z"/>
    <path d="M364.5,34.274V80.123h-8.062V34.274H344.154V26.7h32.6v7.577Z"/>
    <path d="M413.428,34.274H392.01V47.112h20.8V54.69h-20.8V72.545h21.418v7.578H383.947V26.7h29.481Z"/>
    <path d="M438.757,34.274V80.123h-8.063V34.274H418.41V26.7h32.6v7.577Z"/>
  </g>
</svg>
