<svg width="395" height="568" viewBox="0 0 395 568" fill="none" xmlns="http://www.w3.org/2000/svg">
<g filter="url(#filter0_d_335_4402)">
<rect width="280" height="560" transform="translate(111)" fill="white"/>
<rect x="112" y="1" width="278" height="558" fill="#F2F2F2" stroke="black" stroke-width="2"/>
<rect x="200" y="1" width="28" height="68" stroke="black" stroke-width="2"/>
<line x1="253.293" y1="168.293" x2="267.293" y2="154.293" stroke="black" stroke-width="2"/>
<line x1="273.707" y1="350.707" x2="259.707" y2="364.707" stroke="black" stroke-width="2"/>
<line x1="275.707" y1="222.707" x2="261.707" y2="236.707" stroke="black" stroke-width="2"/>
<line x1="253.293" y1="320.293" x2="267.293" y2="306.293" stroke="black" stroke-width="2"/>
<line x1="273.707" y1="520.707" x2="259.707" y2="534.707" stroke="black" stroke-width="2"/>
<line x1="253.293" y1="490.293" x2="267.293" y2="476.293" stroke="black" stroke-width="2"/>
<line x1="273.707" y1="94.7071" x2="259.707" y2="108.707" stroke="black" stroke-width="2"/>
<path d="M253.5 19.5V64.5C253.5 65.6046 252.605 66.5 251.5 66.5C250.395 66.5 249.5 65.6046 249.5 64.5V19.5C249.5 18.3954 250.395 17.5 251.5 17.5C252.605 17.5 253.5 18.3954 253.5 19.5Z" stroke="black"/>
<line x1="249" y1="57.5" x2="228" y2="57.5" stroke="black"/>
<line x1="249" y1="53.5" x2="228" y2="53.5" stroke="black"/>
<line x1="249" y1="49.5" x2="228" y2="49.5" stroke="black"/>
<line x1="249" y1="45.5" x2="228" y2="45.5" stroke="black"/>
<line x1="249" y1="41.5" x2="228" y2="41.5" stroke="black"/>
<line x1="274" y1="57.5" x2="253" y2="57.5" stroke="black"/>
<line x1="274" y1="53.5" x2="253" y2="53.5" stroke="black"/>
<line x1="274" y1="49.5" x2="253" y2="49.5" stroke="black"/>
<line x1="274" y1="45.5" x2="253" y2="45.5" stroke="black"/>
<line x1="274" y1="41.5" x2="253" y2="41.5" stroke="black"/>
<line x1="249" y1="37.5" x2="228" y2="37.5" stroke="black"/>
<line x1="249" y1="33.5" x2="228" y2="33.5" stroke="black"/>
<line x1="249" y1="29.5" x2="228" y2="29.5" stroke="black"/>
<line x1="249" y1="25.5" x2="228" y2="25.5" stroke="black"/>
<rect x="112" y="1" width="87" height="126" fill="#01020F" stroke="black" stroke-width="2"/>
<rect x="185" y="90" width="15" height="20" fill="#01020F"/>
<line x1="198.293" y1="111.293" x2="212.293" y2="97.2929" stroke="black" stroke-width="2"/>
<rect x="112" y="128" width="141" height="163" fill="#0018B7" stroke="black" stroke-width="2"/>
<rect x="112" y="288" width="141" height="146" fill="#0018B7" stroke="black" stroke-width="2"/>
<rect x="112" y="431" width="141" height="128" fill="#0018B7" stroke="black" stroke-width="2"/>
<rect x="239" y="146" width="15" height="20" fill="#0018B7"/>
<path d="M239 298H254V318H239V298Z" fill="#0018B7"/>
<rect x="239" y="468" width="15" height="20" fill="#0018B7"/>
<rect x="274" y="1" width="116" height="126" fill="#F5F757" stroke="black" stroke-width="2"/>
<rect x="274" y="249" width="116" height="134" fill="#F5F757" stroke="black" stroke-width="2"/>
<rect x="274" y="453" width="116" height="106" fill="#F5F757" stroke="black" stroke-width="2"/>
<rect x="274" y="128" width="116" height="126" fill="#F5F757" stroke="black" stroke-width="2"/>
<rect x="287" y="373" width="14" height="20" transform="rotate(-180 287 373)" fill="#F5F757"/>
<rect x="289" y="247" width="16" height="20" transform="rotate(-180 289 247)" fill="#F5F757"/>
<rect x="288" y="543" width="15" height="20" transform="rotate(-180 288 543)" fill="#F5F757"/>
<rect x="287" y="117" width="14" height="20" transform="rotate(-180 287 117)" fill="#F5F757"/>
<path d="M53 535.883L4.98 535.883L4.97999 510.893C4.97999 507.44 5.63333 504.57 6.93999 502.283C8.19999 499.95 9.99666 498.2 12.33 497.033C14.6167 495.82 17.3467 495.213 20.52 495.213C23.6933 495.213 26.47 495.843 28.85 497.103C31.1833 498.316 33.0033 500.113 34.31 502.493C35.6167 504.873 36.27 507.79 36.27 511.243L36.27 525.453L53 525.453L53 535.883ZM27.73 525.453L27.73 512.643C27.73 510.45 27.1 508.77 25.84 507.603C24.58 506.39 22.83 505.783 20.59 505.783C19.05 505.783 17.7667 506.04 16.74 506.553C15.7133 507.066 14.92 507.836 14.36 508.863C13.8 509.843 13.52 511.103 13.52 512.643L13.52 525.453L27.73 525.453ZM53 488.237L4.97999 488.237L4.97999 477.807L44.11 477.807L44.11 453.587L53 453.587L53 488.237ZM53 451.779L4.97999 433.299L4.97999 420.419L53 401.939L53 413.209L43.55 416.639L43.55 437.569L53 440.999L53 451.779ZM35.15 434.559L35.15 419.649L23.32 423.919C22.8067 424.106 22.2 424.339 21.5 424.619C20.7533 424.853 19.9367 425.109 19.05 425.389C18.1633 425.669 17.3 425.949 16.46 426.229C15.5733 426.463 14.78 426.696 14.08 426.929L14.08 427.349C14.9667 427.583 16.0167 427.886 17.23 428.259C18.3967 428.633 19.54 429.006 20.66 429.379C21.7333 429.753 22.62 430.056 23.32 430.289L35.15 434.559ZM53 396.225L4.97999 396.225L4.97999 386.635L30.88 367.315C31.2067 367.035 31.6733 366.685 32.28 366.265C32.84 365.845 33.4 365.448 33.96 365.075C34.52 364.702 34.9633 364.445 35.29 364.305L35.29 363.955C34.4967 363.955 33.7267 363.955 32.98 363.955C32.1867 363.955 31.4867 363.955 30.88 363.955L4.97999 363.955L4.97999 354.085L53 354.085L53 363.675L26.47 383.415C25.8167 383.882 25.0933 384.372 24.3 384.885C23.5067 385.398 22.9 385.772 22.48 386.005L22.48 386.355C23.18 386.355 23.88 386.355 24.58 386.355C25.2333 386.355 25.8633 386.355 26.47 386.355L53 386.355L53 396.225ZM53 331.621L13.73 331.621L13.73 347.021L4.97999 347.021L4.97999 305.651L13.73 305.651L13.73 321.121L53 321.121L53 331.621ZM53 298.608L4.97999 298.608L4.97998 260.248L13.52 260.248L13.52 288.108L24.23 288.108L24.23 263.468L32.7 263.468L32.7 288.108L44.39 288.108L44.39 259.828L53 259.828L53 298.608ZM53.84 228.985C53.84 236.545 51.8333 242.378 47.82 246.485C43.76 250.545 37.4833 252.575 28.99 252.575C23.3433 252.575 18.7 251.595 15.06 249.635C11.3733 247.675 8.64332 244.828 6.86998 241.095C5.04998 237.361 4.13998 232.881 4.13998 227.655C4.13998 224.528 4.48998 221.588 5.18998 218.835C5.88998 216.081 6.96332 213.655 8.40998 211.555C9.85665 209.408 11.6767 207.751 13.87 206.585C16.0167 205.371 18.5833 204.765 21.57 204.765L21.57 215.335C20.1233 215.335 18.84 215.661 17.72 216.315C16.6 216.921 15.6667 217.785 14.92 218.905C14.1733 220.025 13.6133 221.308 13.24 222.755C12.8666 224.201 12.68 225.718 12.68 227.305C12.68 229.731 13.0066 231.855 13.66 233.675C14.2667 235.495 15.2233 237.011 16.53 238.225C17.79 239.391 19.3767 240.278 21.29 240.885C23.2033 241.491 25.42 241.795 27.94 241.795L30.04 241.795C33.54 241.795 36.41 241.281 38.65 240.255C40.89 239.228 42.57 237.688 43.69 235.635C44.7633 233.581 45.3 231.038 45.3 228.005C45.3 225.485 44.9267 223.268 44.18 221.355C43.3867 219.395 42.2667 217.878 40.82 216.805C39.3733 215.685 37.6 215.125 35.5 215.125L35.01 215.125L35.01 229.475L27.03 229.475L27.03 204.765L53 204.765L53 211.625L47.82 212.535C49.1733 213.935 50.2933 215.451 51.18 217.085C52.0667 218.671 52.72 220.445 53.14 222.405C53.6067 224.365 53.84 226.558 53.84 228.985ZM53 194.701L4.97998 194.701L4.97998 185.111L30.88 165.791C31.2066 165.511 31.6733 165.161 32.28 164.741C32.84 164.321 33.4 163.925 33.96 163.551C34.52 163.178 34.9633 162.921 35.29 162.781L35.29 162.431C34.4966 162.431 33.7266 162.431 32.98 162.431C32.1866 162.431 31.4866 162.431 30.88 162.431L4.97998 162.431L4.97998 152.561L53 152.561L53 162.151L26.47 181.891C25.8166 182.358 25.0933 182.848 24.3 183.361C23.5066 183.875 22.9 184.248 22.48 184.481L22.48 184.831C23.18 184.831 23.88 184.831 24.58 184.831C25.2333 184.831 25.8633 184.831 26.47 184.831L53 184.831L53 194.701ZM53 141.928L4.97998 141.928L4.97998 131.498L53 131.498L53 141.928ZM53 120.873L4.97998 120.873L4.97998 111.283L30.88 91.9634C31.2066 91.6834 31.6733 91.3334 32.28 90.9134C32.84 90.4934 33.4 90.0967 33.96 89.7234C34.52 89.35 34.9633 89.0934 35.29 88.9534L35.29 88.6034C34.4966 88.6034 33.7266 88.6034 32.98 88.6034C32.1866 88.6034 31.4866 88.6034 30.88 88.6034L4.97998 88.6034L4.97998 78.7334L53 78.7334L53 88.3234L26.47 108.063C25.8166 108.53 25.0933 109.02 24.3 109.533C23.5066 110.047 22.9 110.42 22.48 110.653L22.48 111.003C23.18 111.003 23.88 111.003 24.58 111.003C25.2333 111.003 25.8633 111.003 26.47 111.003L53 111.003L53 120.873ZM53.84 46.2599C53.84 53.8199 51.8333 59.6533 47.82 63.7599C43.76 67.8199 37.4833 69.8499 28.99 69.8499C23.3433 69.8499 18.7 68.8699 15.06 66.9099C11.3733 64.9499 8.64331 62.1033 6.86998 58.3699C5.04998 54.6366 4.13998 50.1566 4.13998 44.9299C4.13998 41.8033 4.48998 38.8633 5.18998 36.1099C5.88997 33.3566 6.96331 30.9299 8.40998 28.8299C9.85664 26.6833 11.6766 25.0266 13.87 23.8599C16.0166 22.6466 18.5833 22.0399 21.57 22.0399L21.57 32.6099C20.1233 32.6099 18.84 32.9366 17.72 33.5899C16.6 34.1966 15.6666 35.0599 14.92 36.1799C14.1733 37.2999 13.6133 38.5833 13.24 40.0299C12.8666 41.4766 12.68 42.9933 12.68 44.5799C12.68 47.0066 13.0066 49.1299 13.66 50.9499C14.2666 52.7699 15.2233 54.2866 16.53 55.4999C17.79 56.6666 19.3766 57.5533 21.29 58.1599C23.2033 58.7666 25.42 59.0699 27.94 59.0699L30.04 59.0699C33.54 59.0699 36.41 58.5566 38.65 57.5299C40.89 56.5033 42.57 54.9633 43.69 52.9099C44.7633 50.8566 45.3 48.3133 45.3 45.2799C45.3 42.7599 44.9266 40.5433 44.18 38.6299C43.3866 36.6699 42.2666 35.1533 40.82 34.0799C39.3733 32.9599 37.6 32.3999 35.5 32.3999L35.01 32.3999L35.01 46.7499L27.03 46.7499L27.03 22.0399L53 22.0399L53 28.8999L47.82 29.8099C49.1733 31.2099 50.2933 32.7266 51.18 34.3599C52.0666 35.9466 52.72 37.7199 53.14 39.6799C53.6066 41.6399 53.84 43.8333 53.84 46.2599Z" fill="#373F41"/>
</g>
<defs>
<filter id="filter0_d_335_4402" x="0.140015" y="0" width="394.86" height="568" filterUnits="userSpaceOnUse" color-interpolation-filters="sRGB">
<feFlood flood-opacity="0" result="BackgroundImageFix"/>
<feColorMatrix in="SourceAlpha" type="matrix" values="0 0 0 0 0 0 0 0 0 0 0 0 0 0 0 0 0 0 127 0" result="hardAlpha"/>
<feOffset dy="4"/>
<feGaussianBlur stdDeviation="2"/>
<feComposite in2="hardAlpha" operator="out"/>
<feColorMatrix type="matrix" values="0 0 0 0 0 0 0 0 0 0 0 0 0 0 0 0 0 0 0.25 0"/>
<feBlend mode="normal" in2="BackgroundImageFix" result="effect1_dropShadow_335_4402"/>
<feBlend mode="normal" in="SourceGraphic" in2="effect1_dropShadow_335_4402" result="shape"/>
</filter>
</defs>
</svg>
