<svg width="545" height="568" viewBox="0 0 545 568" fill="none" xmlns="http://www.w3.org/2000/svg">
<g filter="url(#filter0_d_398_4803)">
<rect width="280" height="560" transform="translate(106)" fill="white"/>
<rect x="107" y="1" width="278" height="558" fill="#F2F2F2" stroke="black" stroke-width="2"/>
<rect x="195" y="1" width="28" height="68" stroke="black" stroke-width="2"/>
<line x1="248.293" y1="168.293" x2="262.293" y2="154.293" stroke="black" stroke-width="2"/>
<line x1="268.707" y1="350.707" x2="254.707" y2="364.707" stroke="black" stroke-width="2"/>
<line x1="270.707" y1="222.707" x2="256.707" y2="236.707" stroke="black" stroke-width="2"/>
<line x1="248.293" y1="320.293" x2="262.293" y2="306.293" stroke="black" stroke-width="2"/>
<line x1="268.707" y1="520.707" x2="254.707" y2="534.707" stroke="black" stroke-width="2"/>
<line x1="248.293" y1="490.293" x2="262.293" y2="476.293" stroke="black" stroke-width="2"/>
<line x1="268.707" y1="94.7071" x2="254.707" y2="108.707" stroke="black" stroke-width="2"/>
<path d="M248.5 19.5V64.5C248.5 65.6046 247.605 66.5 246.5 66.5C245.395 66.5 244.5 65.6046 244.5 64.5V19.5C244.5 18.3954 245.395 17.5 246.5 17.5C247.605 17.5 248.5 18.3954 248.5 19.5Z" stroke="black"/>
<line x1="244" y1="57.5" x2="223" y2="57.5" stroke="black"/>
<line x1="244" y1="53.5" x2="223" y2="53.5" stroke="black"/>
<line x1="244" y1="49.5" x2="223" y2="49.5" stroke="black"/>
<line x1="244" y1="45.5" x2="223" y2="45.5" stroke="black"/>
<line x1="244" y1="41.5" x2="223" y2="41.5" stroke="black"/>
<line x1="269" y1="57.5" x2="248" y2="57.5" stroke="black"/>
<line x1="269" y1="53.5" x2="248" y2="53.5" stroke="black"/>
<line x1="269" y1="49.5" x2="248" y2="49.5" stroke="black"/>
<line x1="269" y1="45.5" x2="248" y2="45.5" stroke="black"/>
<line x1="269" y1="41.5" x2="248" y2="41.5" stroke="black"/>
<line x1="244" y1="37.5" x2="223" y2="37.5" stroke="black"/>
<line x1="244" y1="33.5" x2="223" y2="33.5" stroke="black"/>
<line x1="244" y1="29.5" x2="223" y2="29.5" stroke="black"/>
<line x1="244" y1="25.5" x2="223" y2="25.5" stroke="black"/>
<rect x="107" y="1" width="87" height="126" fill="#01020F" stroke="black" stroke-width="2"/>
<rect x="180" y="90" width="15" height="20" fill="#01020F"/>
<line x1="193.293" y1="111.293" x2="207.293" y2="97.2929" stroke="black" stroke-width="2"/>
<rect x="107" y="128" width="141" height="163" fill="#0018B7" stroke="black" stroke-width="2"/>
<rect x="107" y="288" width="141" height="146" fill="#0018B7" stroke="black" stroke-width="2"/>
<rect x="107" y="431" width="141" height="128" fill="#0018B7" stroke="black" stroke-width="2"/>
<rect x="234" y="146" width="15" height="20" fill="#0018B7"/>
<path d="M234 298H249V318H234V298Z" fill="#0018B7"/>
<rect x="234" y="468" width="15" height="20" fill="#0018B7"/>
<rect x="269" y="1" width="116" height="126" fill="#F5F757" stroke="black" stroke-width="2"/>
<rect x="269" y="249" width="116" height="134" fill="#F5F757" stroke="black" stroke-width="2"/>
<rect x="269" y="453" width="116" height="106" fill="#F5F757" stroke="black" stroke-width="2"/>
<rect x="269" y="128" width="116" height="126" fill="#F5F757" stroke="black" stroke-width="2"/>
<rect x="282" y="373" width="14" height="20" transform="rotate(-180 282 373)" fill="#F5F757"/>
<rect x="284" y="247" width="16" height="20" transform="rotate(-180 284 247)" fill="#F5F757"/>
<rect x="283" y="543" width="15" height="20" transform="rotate(-180 283 543)" fill="#F5F757"/>
<rect x="282" y="117" width="14" height="20" transform="rotate(-180 282 117)" fill="#F5F757"/>
<circle cx="80" cy="65" r="12.75" transform="rotate(-90 80 65)" fill="#01020F" stroke="black" stroke-width="0.5"/>
<path d="M83 32.74L76.14 32.74L76.14 31.25L81.73 31.25L81.73 27.79L83 27.79L83 32.74ZM83 26.5318L76.14 26.5318L76.14 25.0418L83 25.0418L83 26.5318ZM83 23.224L76.14 23.224L76.14 21.734L81.73 21.734L81.73 18.274L83 18.274L83 23.224ZM83 17.0158L76.14 17.0158L76.14 15.5258L81.73 15.5258L81.73 12.0658L83 12.0658L83 17.0158ZM83 10.8076L76.14 10.8076L76.14 5.32758L77.36 5.32758L77.36 9.30758L78.89 9.30758L78.89 5.78758L80.1 5.78758L80.1 9.30758L81.77 9.30758L81.77 5.26758L83 5.26758L83 10.8076Z" fill="black"/>
<circle cx="80" cy="307" r="12.75" transform="rotate(-90 80 307)" fill="#F5F757" stroke="black" stroke-width="0.5"/>
<path d="M83 274.74L76.14 274.74L76.14 272.47L79.65 271.49C79.7767 271.45 79.9267 271.41 80.1 271.37C80.2733 271.33 80.4467 271.29 80.62 271.25C80.7867 271.203 80.9367 271.167 81.07 271.14L81.07 271.06C80.9567 271.047 80.8233 271.023 80.67 270.99C80.51 270.957 80.34 270.92 80.16 270.88C79.98 270.84 79.8067 270.797 79.64 270.75L76.14 269.77L76.14 267.54L83 267.54L83 269.01L79.75 269.01C79.45 269.01 79.15 269.01 78.85 269.01C78.5433 269.003 78.2767 268.997 78.05 268.99C77.8233 268.977 77.6767 268.97 77.61 268.97L77.61 269.05C77.6833 269.063 77.82 269.097 78.02 269.15C78.2133 269.197 78.42 269.25 78.64 269.31C78.86 269.363 79.05 269.413 79.21 269.46L83 270.53L83 271.83L79.22 272.91C79.08 272.95 78.9167 272.997 78.73 273.05C78.5367 273.097 78.34 273.143 78.14 273.19C77.9333 273.23 77.7567 273.27 77.61 273.31L77.61 273.39C77.79 273.383 78.0067 273.377 78.26 273.37C78.5067 273.363 78.7633 273.357 79.03 273.35C79.29 273.343 79.53 273.34 79.75 273.34L83 273.34L83 274.74ZM83 265.719L76.14 265.719L76.14 260.239L77.36 260.239L77.36 264.219L78.89 264.219L78.89 260.699L80.1 260.699L80.1 264.219L81.77 264.219L81.77 260.179L83 260.179L83 265.719ZM83 258.593L76.14 258.593L76.14 257.103L81.73 257.103L81.73 253.643L83 253.643L83 258.593ZM83 252.385L76.14 252.385L76.14 250.895L81.73 250.895L81.73 247.435L83 247.435L83 252.385ZM83 246.177L76.14 246.177L76.14 240.697L77.36 240.697L77.36 244.677L78.89 244.677L78.89 241.157L80.1 241.157L80.1 244.677L81.77 244.677L81.77 240.637L83 240.637L83 246.177ZM83 239.051L76.14 239.051L76.14 236.781L79.65 235.801C79.7767 235.761 79.9267 235.721 80.1 235.681C80.2733 235.641 80.4467 235.601 80.62 235.561C80.7867 235.514 80.9367 235.477 81.07 235.451L81.07 235.371C80.9567 235.357 80.8233 235.334 80.67 235.301C80.51 235.267 80.34 235.231 80.16 235.191C79.98 235.151 79.8067 235.107 79.64 235.061L76.14 234.081L76.14 231.851L83 231.851L83 233.321L79.75 233.321C79.45 233.321 79.15 233.321 78.85 233.321C78.5433 233.314 78.2767 233.307 78.05 233.301C77.8233 233.287 77.6767 233.281 77.61 233.281L77.61 233.361C77.6833 233.374 77.82 233.407 78.02 233.461C78.2133 233.507 78.42 233.561 78.64 233.621C78.86 233.674 79.05 233.724 79.21 233.771L83 234.841L83 236.141L79.22 237.221C79.08 237.261 78.9167 237.307 78.73 237.361C78.5367 237.407 78.34 237.454 78.14 237.501C77.9333 237.541 77.7567 237.581 77.61 237.621L77.61 237.701C77.79 237.694 78.0067 237.687 78.26 237.681C78.5067 237.674 78.7633 237.667 79.03 237.661C79.29 237.654 79.53 237.651 79.75 237.651L83 237.651L83 239.051Z" fill="black"/>
<circle cx="80" cy="547" r="12.75" transform="rotate(-90 80 547)" fill="#0018B7" stroke="#0018B7" stroke-width="0.5"/>
<path d="M83.12 512.07C83.12 512.47 83.08 512.85 83 513.21C82.92 513.57 82.7933 513.89 82.62 514.17C82.44 514.443 82.2167 514.66 81.95 514.82C81.6767 514.973 81.3467 515.05 80.96 515.05C80.9267 515.05 80.8933 515.05 80.86 515.05C80.82 515.05 80.79 515.047 80.77 515.04L80.77 513.56C80.79 513.567 80.8167 513.57 80.85 513.57C80.8833 513.57 80.9133 513.57 80.94 513.57C81.1533 513.57 81.3333 513.513 81.48 513.4C81.6267 513.28 81.7367 513.107 81.81 512.88C81.8833 512.653 81.92 512.39 81.92 512.09C81.92 511.897 81.91 511.727 81.89 511.58C81.8633 511.427 81.83 511.293 81.79 511.18C81.7433 511.06 81.69 510.963 81.63 510.89C81.57 510.81 81.5 510.753 81.42 510.72C81.34 510.68 81.25 510.66 81.15 510.66C80.97 510.66 80.8233 510.72 80.71 510.84C80.5967 510.953 80.5 511.113 80.42 511.32C80.34 511.52 80.2667 511.747 80.2 512C80.1333 512.253 80.0667 512.513 80 512.78C79.9267 513.047 79.84 513.307 79.74 513.56C79.6333 513.813 79.5067 514.04 79.36 514.24C79.2133 514.44 79.0267 514.6 78.8 514.72C78.5733 514.84 78.3 514.9 77.98 514.9C77.64 514.9 77.3467 514.83 77.1 514.69C76.8533 514.543 76.65 514.34 76.49 514.08C76.33 513.82 76.2133 513.52 76.14 513.18C76.06 512.84 76.02 512.47 76.02 512.07C76.02 511.697 76.06 511.343 76.14 511.01C76.2133 510.677 76.3333 510.383 76.5 510.13C76.6667 509.877 76.8767 509.68 77.13 509.54C77.3833 509.393 77.6833 509.32 78.03 509.32L78.15 509.32L78.15 510.77L78.07 510.77C77.89 510.77 77.7367 510.823 77.61 510.93C77.4833 511.037 77.3833 511.187 77.31 511.38C77.2367 511.573 77.2 511.8 77.2 512.06C77.2 512.34 77.2267 512.58 77.28 512.78C77.3333 512.973 77.4133 513.123 77.52 513.23C77.62 513.33 77.74 513.38 77.88 513.38C78.04 513.38 78.1733 513.323 78.28 513.21C78.38 513.09 78.47 512.93 78.55 512.73C78.6233 512.523 78.69 512.293 78.75 512.04C78.81 511.787 78.8767 511.527 78.95 511.26C79.0233 510.993 79.11 510.733 79.21 510.48C79.31 510.227 79.4367 510 79.59 509.8C79.7367 509.6 79.92 509.44 80.14 509.32C80.36 509.2 80.6233 509.14 80.93 509.14C81.4567 509.14 81.88 509.267 82.2 509.52C82.52 509.773 82.7533 510.12 82.9 510.56C83.0467 511 83.12 511.503 83.12 512.07ZM83 505.963L77.39 505.963L77.39 508.163L76.14 508.163L76.14 502.253L77.39 502.253L77.39 504.463L83 504.463L83 505.963ZM83.12 498.01C83.12 498.737 82.99 499.364 82.73 499.89C82.47 500.417 82.0767 500.82 81.55 501.1C81.0233 501.38 80.3633 501.52 79.57 501.52C78.7633 501.52 78.1 501.38 77.58 501.1C77.0533 500.82 76.6633 500.417 76.41 499.89C76.15 499.364 76.02 498.737 76.02 498.01C76.02 497.27 76.15 496.64 76.41 496.12C76.6633 495.594 77.0533 495.19 77.58 494.91C78.1 494.63 78.7633 494.49 79.57 494.49C80.3633 494.49 81.0233 494.63 81.55 494.91C82.0767 495.19 82.47 495.594 82.73 496.12C82.99 496.64 83.12 497.27 83.12 498.01ZM81.9 498.01C81.9 497.684 81.8533 497.397 81.76 497.15C81.6667 496.904 81.5267 496.697 81.34 496.53C81.1533 496.364 80.9267 496.237 80.66 496.15C80.3867 496.064 80.0767 496.02 79.73 496.02L79.42 496.02C79.0667 496.02 78.7533 496.064 78.48 496.15C78.2067 496.237 77.98 496.364 77.8 496.53C77.6133 496.697 77.4733 496.904 77.38 497.15C77.2867 497.397 77.24 497.684 77.24 498.01C77.24 498.33 77.2867 498.614 77.38 498.86C77.4733 499.107 77.6133 499.314 77.8 499.48C77.98 499.647 78.2067 499.774 78.48 499.86C78.7533 499.94 79.0667 499.98 79.42 499.98L79.73 499.98C80.0767 499.98 80.3867 499.94 80.66 499.86C80.9267 499.774 81.1533 499.647 81.34 499.48C81.5267 499.314 81.6667 499.107 81.76 498.86C81.8533 498.614 81.9 498.33 81.9 498.01ZM83 492.981L76.14 492.981L76.14 489.221C76.14 488.714 76.23 488.294 76.41 487.961C76.59 487.621 76.8433 487.367 77.17 487.201C77.49 487.034 77.86 486.951 78.28 486.951C78.7267 486.951 79.1233 487.051 79.47 487.251C79.81 487.451 80.07 487.741 80.25 488.121L83 486.721L83 488.371L80.5 489.581L80.5 491.491L83 491.491L83 492.981ZM79.32 491.491L79.32 489.421C79.32 489.121 79.23 488.887 79.05 488.721C78.8633 488.554 78.6133 488.471 78.3 488.471C78.1 488.471 77.93 488.507 77.79 488.581C77.6433 488.654 77.5333 488.761 77.46 488.901C77.3867 489.041 77.35 489.214 77.35 489.421L77.35 491.491L79.32 491.491Z" fill="black"/>
</g>
<path d="M504 535.883L455.98 535.883L455.98 510.893C455.98 507.44 456.633 504.57 457.94 502.283C459.2 499.95 460.997 498.2 463.33 497.033C465.617 495.82 468.347 495.213 471.52 495.213C474.693 495.213 477.47 495.843 479.85 497.103C482.183 498.316 484.003 500.113 485.31 502.493C486.617 504.873 487.27 507.79 487.27 511.243L487.27 525.453L504 525.453L504 535.883ZM478.73 525.453L478.73 512.643C478.73 510.45 478.1 508.77 476.84 507.603C475.58 506.39 473.83 505.783 471.59 505.783C470.05 505.783 468.767 506.04 467.74 506.553C466.713 507.066 465.92 507.836 465.36 508.863C464.8 509.843 464.52 511.103 464.52 512.643L464.52 525.453L478.73 525.453ZM504 488.237L455.98 488.237L455.98 477.807L495.11 477.807L495.11 453.587L504 453.587L504 488.237ZM504 451.779L455.98 433.299L455.98 420.419L504 401.939L504 413.209L494.55 416.639L494.55 437.569L504 440.999L504 451.779ZM486.15 434.559L486.15 419.649L474.32 423.919C473.807 424.106 473.2 424.339 472.5 424.619C471.753 424.853 470.937 425.109 470.05 425.389C469.163 425.669 468.3 425.949 467.46 426.229C466.573 426.463 465.78 426.696 465.08 426.929L465.08 427.349C465.967 427.583 467.017 427.886 468.23 428.259C469.397 428.633 470.54 429.006 471.66 429.379C472.733 429.753 473.62 430.056 474.32 430.289L486.15 434.559ZM504 396.225L455.98 396.225L455.98 386.635L481.88 367.315C482.207 367.035 482.673 366.685 483.28 366.265C483.84 365.845 484.4 365.448 484.96 365.075C485.52 364.702 485.963 364.445 486.29 364.305L486.29 363.955C485.497 363.955 484.727 363.955 483.98 363.955C483.187 363.955 482.487 363.955 481.88 363.955L455.98 363.955L455.98 354.085L504 354.085L504 363.675L477.47 383.415C476.817 383.882 476.093 384.372 475.3 384.885C474.507 385.398 473.9 385.772 473.48 386.005L473.48 386.355C474.18 386.355 474.88 386.355 475.58 386.355C476.233 386.355 476.863 386.355 477.47 386.355L504 386.355L504 396.225ZM504 331.621L464.73 331.621L464.73 347.021L455.98 347.021L455.98 305.651L464.73 305.651L464.73 321.121L504 321.121L504 331.621ZM504 298.608L455.98 298.608L455.98 260.248L464.52 260.248L464.52 288.108L475.23 288.108L475.23 263.468L483.7 263.468L483.7 288.108L495.39 288.108L495.39 259.828L504 259.828L504 298.608ZM504.84 228.985C504.84 236.545 502.833 242.378 498.82 246.485C494.76 250.545 488.483 252.575 479.99 252.575C474.343 252.575 469.7 251.595 466.06 249.635C462.373 247.675 459.643 244.828 457.87 241.095C456.05 237.361 455.14 232.881 455.14 227.655C455.14 224.528 455.49 221.588 456.19 218.835C456.89 216.081 457.963 213.655 459.41 211.555C460.857 209.408 462.677 207.751 464.87 206.585C467.017 205.371 469.583 204.765 472.57 204.765L472.57 215.335C471.123 215.335 469.84 215.661 468.72 216.315C467.6 216.921 466.667 217.785 465.92 218.905C465.173 220.025 464.613 221.308 464.24 222.755C463.867 224.201 463.68 225.718 463.68 227.305C463.68 229.731 464.007 231.855 464.66 233.675C465.267 235.495 466.223 237.011 467.53 238.225C468.79 239.391 470.377 240.278 472.29 240.885C474.203 241.491 476.42 241.795 478.94 241.795L481.04 241.795C484.54 241.795 487.41 241.281 489.65 240.255C491.89 239.228 493.57 237.688 494.69 235.635C495.763 233.581 496.3 231.038 496.3 228.005C496.3 225.485 495.927 223.268 495.18 221.355C494.387 219.395 493.267 217.878 491.82 216.805C490.373 215.685 488.6 215.125 486.5 215.125L486.01 215.125L486.01 229.475L478.03 229.475L478.03 204.765L504 204.765L504 211.625L498.82 212.535C500.173 213.935 501.293 215.451 502.18 217.085C503.067 218.671 503.72 220.445 504.14 222.405C504.607 224.365 504.84 226.558 504.84 228.985ZM504 194.701L455.98 194.701L455.98 185.111L481.88 165.791C482.207 165.511 482.673 165.161 483.28 164.741C483.84 164.321 484.4 163.925 484.96 163.551C485.52 163.178 485.963 162.921 486.29 162.781L486.29 162.431C485.497 162.431 484.727 162.431 483.98 162.431C483.187 162.431 482.487 162.431 481.88 162.431L455.98 162.431L455.98 152.561L504 152.561L504 162.151L477.47 181.891C476.817 182.358 476.093 182.848 475.3 183.361C474.507 183.875 473.9 184.248 473.48 184.481L473.48 184.831C474.18 184.831 474.88 184.831 475.58 184.831C476.233 184.831 476.863 184.831 477.47 184.831L504 184.831L504 194.701ZM504 141.928L455.98 141.928L455.98 131.498L504 131.498L504 141.928ZM504 120.873L455.98 120.873L455.98 111.283L481.88 91.9634C482.207 91.6834 482.673 91.3334 483.28 90.9134C483.84 90.4934 484.4 90.0967 484.96 89.7234C485.52 89.35 485.963 89.0934 486.29 88.9534L486.29 88.6034C485.497 88.6034 484.727 88.6034 483.98 88.6034C483.187 88.6034 482.487 88.6034 481.88 88.6034L455.98 88.6034L455.98 78.7334L504 78.7334L504 88.3234L477.47 108.063C476.817 108.53 476.093 109.02 475.3 109.533C474.507 110.047 473.9 110.42 473.48 110.653L473.48 111.003C474.18 111.003 474.88 111.003 475.58 111.003C476.233 111.003 476.863 111.003 477.47 111.003L504 111.003L504 120.873ZM504.84 46.2599C504.84 53.8199 502.833 59.6533 498.82 63.7599C494.76 67.8199 488.483 69.8499 479.99 69.8499C474.343 69.8499 469.7 68.8699 466.06 66.9099C462.373 64.9499 459.643 62.1033 457.87 58.3699C456.05 54.6366 455.14 50.1566 455.14 44.9299C455.14 41.8033 455.49 38.8633 456.19 36.1099C456.89 33.3566 457.963 30.9299 459.41 28.8299C460.857 26.6833 462.677 25.0266 464.87 23.8599C467.017 22.6466 469.583 22.0399 472.57 22.0399L472.57 32.6099C471.123 32.6099 469.84 32.9366 468.72 33.5899C467.6 34.1966 466.667 35.0599 465.92 36.1799C465.173 37.2999 464.613 38.5833 464.24 40.0299C463.867 41.4766 463.68 42.9933 463.68 44.5799C463.68 47.0066 464.007 49.1299 464.66 50.9499C465.267 52.7699 466.223 54.2866 467.53 55.4999C468.79 56.6666 470.377 57.5533 472.29 58.1599C474.203 58.7666 476.42 59.0699 478.94 59.0699L481.04 59.0699C484.54 59.0699 487.41 58.5566 489.65 57.5299C491.89 56.5033 493.57 54.9633 494.69 52.9099C495.763 50.8566 496.3 48.3133 496.3 45.2799C496.3 42.7599 495.927 40.5433 495.18 38.6299C494.387 36.6699 493.267 35.1533 491.82 34.0799C490.373 32.9599 488.6 32.3999 486.5 32.3999L486.01 32.3999L486.01 46.7499L478.03 46.7499L478.03 22.0399L504 22.0399L504 28.8999L498.82 29.8099C500.173 31.2099 501.293 32.7266 502.18 34.3599C503.067 35.9466 503.72 37.7199 504.14 39.6799C504.607 41.6399 504.84 43.8333 504.84 46.2599Z" fill="#373F41"/>
<defs>
<filter id="filter0_d_398_4803" x="-4" y="0" width="394" height="568" filterUnits="userSpaceOnUse" color-interpolation-filters="sRGB">
<feFlood flood-opacity="0" result="BackgroundImageFix"/>
<feColorMatrix in="SourceAlpha" type="matrix" values="0 0 0 0 0 0 0 0 0 0 0 0 0 0 0 0 0 0 127 0" result="hardAlpha"/>
<feOffset dy="4"/>
<feGaussianBlur stdDeviation="2"/>
<feComposite in2="hardAlpha" operator="out"/>
<feColorMatrix type="matrix" values="0 0 0 0 0 0 0 0 0 0 0 0 0 0 0 0 0 0 0.25 0"/>
<feBlend mode="normal" in2="BackgroundImageFix" result="effect1_dropShadow_398_4803"/>
<feBlend mode="normal" in="SourceGraphic" in2="effect1_dropShadow_398_4803" result="shape"/>
</filter>
</defs>
</svg>
